<svg width="250" height="250" viewBox="0 0 250 250" fill="none" xmlns="http://www.w3.org/2000/svg">
<mask id="mask0_26_340" style="mask-type:luminance" maskUnits="userSpaceOnUse" x="25" y="45" width="200" height="160">
<path d="M25.332 45H224.665V205H25.332V45Z" fill="white"/>
</mask>
<g mask="url(#mask0_26_340)">
<path fill-rule="evenodd" clip-rule="evenodd" d="M36.9661 45H213.047C219.432 45 224.648 50.224 224.648 56.612V193.398C224.648 199.771 219.435 205 213.047 205H36.9661C30.5781 205 25.3516 199.771 25.3516 193.398V56.612C25.3516 50.2266 30.5781 45 36.9661 45ZM218.219 74.9688V56.612C218.219 53.763 215.896 51.4271 213.047 51.4271H36.9661C34.1146 51.4271 31.7813 53.7604 31.7813 56.612V74.9688H218.219ZM31.7813 81.3984V193.398C31.7813 196.242 34.1146 198.573 36.9661 198.573H213.047C215.896 198.573 218.219 196.24 218.219 193.398V81.3984H31.7813ZM65.3385 140.443C61.3854 131.776 58.4219 121.977 56.362 112.87C56.362 112.867 56.3594 112.862 56.3594 112.857C55.1901 107.581 56.4792 102.06 59.862 97.8464C63.013 93.9193 67.6667 91.5234 72.6563 91.2135C73.776 89.112 75.9896 87.6771 78.5365 87.6771C82.2083 87.6771 85.1875 90.6589 85.1875 94.3307C85.1875 98.0026 82.2083 100.984 78.5365 100.984C76.0729 100.984 73.9219 99.6432 72.7708 97.651C69.6875 97.9219 66.8307 99.4349 64.875 101.87C62.7135 104.563 61.8906 108.091 62.6354 111.461C64.5833 120.081 67.3672 129.357 71.0938 137.573L72.6354 136.805C74.224 136.013 76.1536 136.659 76.9453 138.247C79.3932 143.161 82.1458 147.63 85.4063 150.87C88.2682 153.711 91.5104 155.576 95.3516 155.638C98.763 155.69 101.714 154.047 104.383 151.612C108.016 148.305 111.076 143.599 113.727 138.302C114.521 136.714 116.453 136.073 118.039 136.867L119.578 137.635C123.409 129.237 126.25 119.742 128.156 111.036C128.875 107.747 127.865 104.323 125.716 101.729C123.755 99.3646 120.932 97.8984 117.898 97.6432C116.75 99.638 114.594 100.984 112.128 100.984C108.456 100.984 105.474 98.0026 105.474 94.3307C105.474 90.6589 108.456 87.6771 112.128 87.6771C114.669 87.6771 116.88 89.1068 118 91.2031C122.914 91.4974 127.505 93.8151 130.667 97.6276C134.073 101.74 135.576 107.195 134.435 112.411C132.422 121.615 129.396 131.648 125.331 140.516L126.974 141.336C128.563 142.13 129.206 144.063 128.411 145.648C121.365 159.732 111.328 169.904 99.4245 171.755C99.5443 172.69 99.7396 173.596 100.049 174.461C103.276 183.406 113.443 186.146 118.904 186.352C123.232 186.518 131.711 185.237 135.997 176.57C137.247 174.047 137.464 169.443 137.404 164.529C137.299 156.409 136.151 147.484 135.695 144.227C134.695 137.06 136.893 123.831 142.867 116.451C145.141 113.643 147.938 111.633 151.214 110.818C154.458 110.008 158.229 110.339 162.526 112.508C167.888 115.214 170.346 120.539 171.049 126.76C171.932 134.594 169.979 143.88 169.604 149.018C169.086 156.117 171.927 160.924 174.646 163.69C176.701 161.987 179.336 160.961 182.208 160.961C188.75 160.961 194.063 166.273 194.063 172.815C194.063 179.357 188.75 184.669 182.208 184.669C175.667 184.669 170.357 179.357 170.357 172.815C170.357 171.505 170.57 170.245 170.964 169.065C167.029 165.49 162.443 158.823 163.193 148.552C163.547 143.685 165.497 134.898 164.661 127.484C164.216 123.542 163.023 119.961 159.628 118.245C157.013 116.924 154.742 116.563 152.768 117.055C149.688 117.823 147.469 120.497 145.779 123.721C142.521 129.94 141.372 138.385 142.063 143.339C142.617 147.305 144.143 159.318 143.784 168.651C143.612 173.107 142.958 177 141.76 179.422C135.951 191.164 124.526 193 118.659 192.776C111.443 192.503 98.2682 188.466 94.0026 176.643C93.4661 175.154 93.1484 173.573 92.9818 171.938C80.1458 170.716 69.5729 160.263 62.25 145.573C61.4583 143.984 62.1042 142.055 63.6927 141.26L65.3385 140.443ZM69.4948 145.552C75.8698 157.146 84.4323 165.458 95.1953 165.625C105.948 165.794 114.672 157.396 121.167 145.62L117.982 144.026C115.286 148.906 112.206 153.182 108.714 156.365C104.766 159.964 100.294 162.143 95.25 162.065C89.7396 161.979 84.9844 159.51 80.875 155.43C77.8099 152.385 75.099 148.411 72.6771 143.969L69.4948 145.552ZM182.208 167.391C179.216 167.391 176.784 169.82 176.784 172.815C176.784 175.81 179.216 178.24 182.208 178.24C185.203 178.24 187.633 175.81 187.633 172.815C187.633 169.82 185.203 167.391 182.208 167.391ZM89.4688 100.435H101.284C103.057 100.435 104.497 101.875 104.497 103.648V112.776H113.622C115.398 112.776 116.839 114.214 116.839 115.99V127.805C116.839 129.581 115.398 131.018 113.622 131.018H104.497V140.146C104.497 141.919 103.057 143.359 101.284 143.359H89.4688C87.6927 143.359 86.2526 141.919 86.2526 140.146V131.018H77.1276C75.3516 131.018 73.9141 129.581 73.9141 127.805V115.99C73.9141 114.214 75.3516 112.776 77.1276 112.776H86.2526V103.648C86.2526 101.875 87.6927 100.435 89.4688 100.435ZM92.6823 106.865V115.99C92.6823 117.766 91.2422 119.203 89.4688 119.203H80.3411V124.591H89.4688C91.2422 124.591 92.6823 126.029 92.6823 127.805V136.93H98.0677V127.805C98.0677 126.029 99.5078 124.591 101.284 124.591H110.409V119.203H101.284C99.5078 119.203 98.0677 117.766 98.0677 115.99V106.865H92.6823ZM51.3932 68.0964C48.6927 68.0964 46.4896 65.9036 46.4896 63.2031C46.4896 60.5026 48.6927 58.2995 51.3932 58.2995C54.0938 58.2995 56.2969 60.5026 56.2969 63.2031C56.2969 65.9036 54.0938 68.0964 51.3932 68.0964ZM70.2188 68.0964C67.5182 68.0964 65.3151 65.9036 65.3151 63.2031C65.3151 60.5026 67.5182 58.2995 70.2188 58.2995C72.9193 58.2995 75.112 60.5026 75.112 63.2031C75.112 65.9036 72.9193 68.0964 70.2188 68.0964ZM89.0339 68.0964C86.3333 68.0964 84.1302 65.9036 84.1302 63.2031C84.1302 60.5026 86.3333 58.2995 89.0339 58.2995C91.7344 58.2995 93.9401 60.5026 93.9401 63.2031C93.9401 65.9036 91.7344 68.0964 89.0339 68.0964Z" fill="url(#paint0_linear_26_340)"/>
</g>
<defs>
<linearGradient id="paint0_linear_26_340" x1="125" y1="45" x2="125" y2="205" gradientUnits="userSpaceOnUse">
<stop stop-color="#00A4D8"/>
<stop offset="1" stop-color="#5D53A3"/>
</linearGradient>
</defs>
</svg>
