<svg width="250" height="250" viewBox="0 0 250 250" fill="none" xmlns="http://www.w3.org/2000/svg">
<mask id="mask0_26_248" style="mask-type:luminance" maskUnits="userSpaceOnUse" x="25" y="25" width="200" height="200">
<path d="M25 25H225V225H25V25Z" fill="white"/>
</mask>
<g mask="url(#mask0_26_248)">
<path d="M151.699 95.8125H98.3425C96.9701 95.8125 95.8529 96.9297 95.8529 98.3021V151.659C95.8529 153.034 96.9701 154.148 98.3425 154.148H151.699C153.074 154.148 154.189 153.034 154.189 151.659V98.3021C154.189 96.9297 153.074 95.8125 151.699 95.8125ZM149.21 149.174H100.832V100.797H149.21V149.174ZM200.796 127.474C201.949 133.034 206.882 137.224 212.78 137.224C219.53 137.224 225.02 131.734 225.02 124.984C225.02 118.232 219.53 112.742 212.78 112.742C206.882 112.742 201.949 116.935 200.796 122.495H169.02V104.714H202.587C209.579 104.714 215.27 99.026 215.27 92.0339V89.5521C220.829 88.3984 225.02 83.4635 225.02 77.5677C225.02 70.8177 219.53 65.3281 212.78 65.3281C206.027 65.3281 200.538 70.8177 200.538 77.5677C200.538 83.4635 204.728 88.3984 210.29 89.5521V92.0339C210.29 96.2813 206.832 99.7344 202.587 99.7344H169.02V92.8385C169.02 86.3021 163.699 80.9844 157.165 80.9844H150.27V47.4141C150.27 43.1667 153.725 39.7135 157.97 39.7135H160.452C161.605 45.2734 166.538 49.4635 172.434 49.4635C179.186 49.4635 184.676 43.974 184.676 37.224C184.676 30.474 179.186 24.9844 172.434 24.9844C166.538 24.9844 161.605 29.1745 160.452 34.7344H157.97C150.978 34.7344 145.29 40.4245 145.29 47.4141V80.9844H127.509V49.2083C133.069 48.0547 137.259 43.1198 137.259 37.224C137.259 30.474 131.77 24.9844 125.02 24.9844C118.27 24.9844 112.78 30.474 112.78 37.224C112.78 43.1198 116.97 48.0547 122.53 49.2083V80.9844H104.749V47.4141C104.749 40.4245 99.0612 34.7344 92.069 34.7344H89.5872C88.4336 29.1745 83.5013 24.9844 77.6055 24.9844C70.8529 24.9844 65.3633 30.474 65.3633 37.224C65.3633 43.974 70.8529 49.4635 77.6055 49.4635C83.5013 49.4635 88.4336 45.2734 89.5872 39.7135H92.069C96.319 39.7135 99.7695 43.1693 99.7695 47.4141V80.9844H92.8737C86.3398 80.9844 81.0195 86.3021 81.0195 92.8385V99.7344H47.4518C43.2018 99.7344 39.7487 96.2786 39.7487 92.0339V89.5521C45.3086 88.3984 49.5013 83.4635 49.5013 77.5677C49.5013 70.8177 44.0117 65.3281 37.2591 65.3281C30.5091 65.3281 25.0195 70.8177 25.0195 77.5677C25.0195 83.4635 29.2096 88.3984 34.7695 89.5521V92.0339C34.7695 99.026 40.4596 104.714 47.4518 104.714H81.0195V122.495H49.2435C48.0898 116.935 43.1576 112.742 37.2591 112.742C30.5091 112.742 25.0195 118.232 25.0195 124.984C25.0195 131.734 30.5091 137.224 37.2591 137.224C43.1576 137.224 48.0898 133.034 49.2435 127.474H81.0195V145.253H47.4518C40.4596 145.253 34.7695 150.943 34.7695 157.935V160.414C29.2096 161.568 25.0195 166.503 25.0195 172.398C25.0195 179.148 30.5091 184.638 37.2591 184.638C44.0117 184.638 49.5013 179.148 49.5013 172.398C49.5013 166.503 45.3086 161.568 39.7487 160.414V157.935C39.7487 153.685 43.207 150.232 47.4518 150.232H81.0195V157.128C81.0195 163.664 86.3398 168.984 92.8737 168.984H99.7695V202.552C99.7695 206.802 96.3138 210.253 92.069 210.253H89.5872C88.4336 204.693 83.5013 200.503 77.6055 200.503C70.8529 200.503 65.3633 205.992 65.3633 212.742C65.3633 219.495 70.8529 224.984 77.6055 224.984C83.5013 224.984 88.4336 220.792 89.5872 215.232H92.069C99.0612 215.232 104.749 209.544 104.749 202.552V168.984H122.53V200.76C116.97 201.914 112.78 206.846 112.78 212.742C112.78 219.495 118.27 224.984 125.02 224.984C131.77 224.984 137.259 219.495 137.259 212.742C137.259 206.846 133.069 201.914 127.509 200.76V168.984H145.29V202.552C145.29 209.544 150.978 215.232 157.97 215.232H160.452C161.605 220.792 166.538 224.984 172.434 224.984C179.186 224.984 184.676 219.495 184.676 212.742C184.676 205.992 179.186 200.503 172.434 200.503C166.538 200.503 161.605 204.693 160.452 210.253H157.97C153.72 210.253 150.27 206.797 150.27 202.552V168.984H157.165C163.699 168.984 169.02 163.664 169.02 157.128V150.232H202.587C206.837 150.232 210.29 153.688 210.29 157.935V160.414C204.728 161.568 200.538 166.503 200.538 172.398C200.538 179.148 206.027 184.638 212.78 184.638C219.53 184.638 225.02 179.148 225.02 172.398C225.02 166.503 220.829 161.568 215.27 160.414V157.935C215.27 150.943 209.579 145.253 202.587 145.253H169.02V127.474H200.796ZM212.78 117.721C216.783 117.721 220.04 120.979 220.04 124.984C220.04 128.987 216.783 132.245 212.78 132.245C208.775 132.245 205.517 128.987 205.517 124.984C205.517 120.979 208.775 117.721 212.78 117.721ZM205.517 77.5677C205.517 73.5651 208.775 70.3073 212.78 70.3073C216.783 70.3073 220.04 73.5651 220.04 77.5677C220.04 81.5729 216.783 84.8307 212.78 84.8307C208.775 84.8307 205.517 81.5729 205.517 77.5677ZM172.439 29.9635C176.441 29.9635 179.699 33.2187 179.699 37.224C179.699 41.2292 176.441 44.4844 172.439 44.4844C168.434 44.4844 165.178 41.2292 165.178 37.224C165.178 33.2187 168.434 29.9635 172.439 29.9635ZM117.759 37.224C117.759 33.2187 121.014 29.9635 125.02 29.9635C129.025 29.9635 132.28 33.2187 132.28 37.224C132.28 41.2292 129.025 44.4844 125.02 44.4844C121.014 44.4844 117.759 41.2292 117.759 37.224ZM77.6003 44.4844C73.5951 44.4844 70.3398 41.2292 70.3398 37.224C70.3398 33.2187 73.5951 29.9635 77.6003 29.9635C81.6055 29.9635 84.8607 33.2187 84.8607 37.224C84.8607 41.2292 81.6055 44.4844 77.6003 44.4844ZM29.9987 77.5677C29.9987 73.5651 33.2565 70.3073 37.2591 70.3073C41.2643 70.3073 44.5221 73.5651 44.5221 77.5677C44.5221 81.5729 41.2643 84.8307 37.2591 84.8307C33.2565 84.8307 29.9987 81.5729 29.9987 77.5677ZM37.2591 132.245C33.2565 132.245 29.9987 128.987 29.9987 124.984C29.9987 120.979 33.2565 117.721 37.2591 117.721C41.2643 117.721 44.5221 120.979 44.5221 124.984C44.5221 128.987 41.2643 132.245 37.2591 132.245ZM44.5221 172.404C44.5221 176.406 41.2643 179.664 37.2591 179.664C33.2565 179.664 29.9987 176.406 29.9987 172.404C29.9987 168.398 33.2565 165.141 37.2591 165.141C41.2643 165.141 44.5221 168.398 44.5221 172.404ZM77.6003 220.005C73.5951 220.005 70.3398 216.747 70.3398 212.742C70.3398 208.74 73.5951 205.482 77.6003 205.482C81.6055 205.482 84.8607 208.74 84.8607 212.742C84.8607 216.747 81.6055 220.005 77.6003 220.005ZM132.28 212.742C132.28 216.747 129.025 220.005 125.02 220.005C121.014 220.005 117.759 216.747 117.759 212.742C117.759 208.74 121.014 205.482 125.02 205.482C129.025 205.482 132.28 208.74 132.28 212.742ZM172.439 205.482C176.441 205.482 179.699 208.74 179.699 212.742C179.699 216.747 176.441 220.005 172.439 220.005C168.434 220.005 165.178 216.747 165.178 212.742C165.178 208.74 168.434 205.482 172.439 205.482ZM164.04 157.128C164.04 160.922 160.957 164.005 157.165 164.005H92.8737C89.082 164.005 85.9987 160.922 85.9987 157.128V92.8385C85.9987 89.0469 89.082 85.9635 92.8737 85.9635H157.165C160.957 85.9635 164.04 89.0469 164.04 92.8385V157.128ZM220.04 172.404C220.04 176.406 216.783 179.664 212.78 179.664C208.775 179.664 205.517 176.406 205.517 172.404C205.517 168.398 208.775 165.141 212.78 165.141C216.783 165.141 220.04 168.398 220.04 172.404ZM109.908 125.547C108.936 124.576 108.936 123 109.908 122.029C110.879 121.057 112.454 121.057 113.426 122.029L121.363 129.966L136.613 114.719C137.585 113.747 139.16 113.747 140.132 114.719C141.103 115.688 141.103 117.266 140.132 118.237L123.124 135.245C122.658 135.714 122.025 135.974 121.363 135.974C120.704 135.974 120.069 135.714 119.605 135.245L109.908 125.547Z" fill="url(#paint0_linear_26_248)"/>
</g>
<defs>
<linearGradient id="paint0_linear_26_248" x1="125.02" y1="24.9844" x2="125.02" y2="224.984" gradientUnits="userSpaceOnUse">
<stop stop-color="#00A4D8"/>
<stop offset="1" stop-color="#5D53A3"/>
</linearGradient>
</defs>
</svg>
