<?xml version="1.0" encoding="utf-8"?>
<!-- Generator: Adobe Illustrator 29.8.2, SVG Export Plug-In . SVG Version: 9.03 Build 0)  -->
<svg version="1.0" id="Layer_1" xmlns="http://www.w3.org/2000/svg" xmlns:xlink="http://www.w3.org/1999/xlink" x="0px" y="0px"
	 viewBox="0 0 250 250" style="enable-background:new 0 0 250 250;" xml:space="preserve">
<style type="text/css">
	.st0{fill-rule:evenodd;clip-rule:evenodd;fill:url(#SVGID_1_);}
</style>
<g>
	<g>
		<linearGradient id="SVGID_1_" gradientUnits="userSpaceOnUse" x1="40.0239" y1="125" x2="209.9761" y2="125">
			<stop  offset="0" style="stop-color:#05A0D5"/>
			<stop  offset="1" style="stop-color:#4C62AD"/>
		</linearGradient>
		<path class="st0" d="M131.91,220.18h-17.06c-1.67,0-3.01-1.33-3.01-3.01v-29.11H91.1c-1.67,0-3.01,1.33-3.01,3.12v5.8
			c5.02,1.23,8.81,5.91,8.81,11.38c0,6.47-5.35,11.82-11.82,11.82c-6.46,0-11.82-5.35-11.82-11.82c0-5.46,3.79-10.15,8.81-11.38
			v-5.8c0-5.02,4.12-9.03,9.03-9.03h20.74v-13.94H88.42c-1.34,5.13-5.91,8.81-11.38,8.81c-6.58,0-11.82-5.24-11.82-11.71
			c0-6.58,5.24-11.82,11.82-11.82c5.46,0,10.04,3.79,11.38,8.81h23.42v-13.83H57.87c-4.91,0-9.03-4.12-9.03-9.03v-5.8
			c-5.02-1.34-8.81-5.91-8.81-11.48c0-6.47,5.35-11.71,11.82-11.71s11.82,5.24,11.82,11.71c0,5.57-3.79,10.15-8.81,11.48v5.8
			c0,1.67,1.34,3.01,3.01,3.01h53.97v-35.02H91.1c-1.67,0-3.01,1.45-3.01,3.12v5.8c5.02,1.33,8.81,5.91,8.81,11.37
			c0,6.58-5.35,11.82-11.82,11.82c-6.46,0-11.82-5.24-11.82-11.82c0-5.46,3.79-10.04,8.81-11.37v-5.8c0-5.02,4.12-9.03,9.03-9.03
			h20.74V87.7H88.42c-1.34,5.02-5.91,8.81-11.38,8.81c-6.58,0-11.82-5.35-11.82-11.82c0-6.47,5.24-11.82,11.82-11.82
			c5.46,0,10.04,3.8,11.38,8.81h23.42V67.85H91.1c-4.91,0-9.03-4.01-9.03-9.03v-5.8c-5.02-1.34-8.81-5.91-8.81-11.38
			c0-6.58,5.35-11.82,11.82-11.82c6.47,0,11.82,5.24,11.82,11.82c0,5.46-3.8,10.04-8.81,11.38v5.8c0,1.67,1.33,3.12,3.01,3.12h20.74
			V32.83c0-1.67,1.34-3.01,3.01-3.01h17.06c1.56,0,2.9,1.33,2.9,3.01v21.86c5.47,1.56,10.71,3.68,15.61,6.46l15.5-15.5
			c1.12-1.12,3.12-1.12,4.24,0l23.98,24.09c0.56,0.56,0.89,1.34,0.89,2.12s-0.33,1.56-0.89,2.12l-15.5,15.39
			c2.79,5.02,4.91,10.26,6.47,15.61h21.97c1.56,0,2.9,1.34,2.9,3.01V142c0,1.67-1.34,3.01-2.9,3.01h-21.97
			c-1.56,5.35-3.68,10.59-6.47,15.5l15.5,15.5c0.56,0.56,0.89,1.33,0.89,2.12c0,0.78-0.33,1.56-0.89,2.12l-23.98,24.09
			c-1.23,1.12-3.12,1.12-4.24,0l-15.5-15.5c-4.91,2.67-10.15,4.91-15.61,6.46v21.86C134.81,218.84,133.48,220.18,131.91,220.18z
			 M82.85,165.31v-0.11c0-3.24-2.67-5.8-5.8-5.8c-3.23,0-5.91,2.68-5.91,5.91c0,3.23,2.68,5.8,5.91,5.8
			C80.17,171.11,82.85,168.54,82.85,165.31z M85.08,121.93c-3.23,0-5.91,2.56-5.91,5.8c0,3.24,2.67,5.91,5.91,5.91
			c3.24,0,5.8-2.67,5.8-5.91C90.88,124.5,88.31,121.93,85.08,121.93z M85.08,202.56c-3.23,0-5.91,2.56-5.91,5.8s2.67,5.8,5.91,5.8
			c3.24,0,5.8-2.56,5.8-5.8S88.31,202.56,85.08,202.56z M82.85,84.8v-0.22c0-3.12-2.67-5.69-5.8-5.69c-3.23,0-5.91,2.56-5.91,5.8
			c0,3.23,2.68,5.8,5.91,5.8C80.17,90.49,82.85,87.92,82.85,84.8z M51.85,116.36c-3.23,0-5.8,2.67-5.8,5.8
			c0,3.23,2.56,5.91,5.8,5.91s5.8-2.68,5.8-5.91C57.64,119.03,55.08,116.36,51.85,116.36z M85.08,47.44c3.24,0,5.8-2.56,5.8-5.8
			s-2.56-5.91-5.8-5.91c-3.23,0-5.91,2.68-5.91,5.91S81.84,47.44,85.08,47.44z M117.86,73.76c26.87,1.56,48.29,23.98,48.29,51.19
			c0,27.32-21.41,49.73-48.29,51.18v38.03h11.04v-21.19c0-1.34,0.89-2.56,2.23-2.9c6.46-1.56,12.6-4.13,18.29-7.59
			c1.11-0.67,2.56-0.44,3.57,0.45l15.06,15.06l19.85-19.85l-15.05-15.06c-1.01-0.89-1.12-2.45-0.45-3.57
			c3.46-5.69,6.02-11.82,7.59-18.29c0.33-1.23,1.56-2.23,2.9-2.23h21.19v-28.1h-21.19c-1.34,0-2.56-0.9-2.9-2.23
			c-1.56-6.36-4.13-12.49-7.59-18.18c-0.67-1.23-0.56-2.67,0.45-3.68l15.05-14.94l-19.85-19.85l-15.06,14.95
			c-1,1-2.46,1.23-3.57,0.44c-5.69-3.35-11.82-5.91-18.29-7.47c-1.34-0.33-2.23-1.56-2.23-2.9v-21.3h-11.04V73.76z M117.86,170.22
			c23.53-1.56,42.37-21.19,42.37-45.27c0-23.98-18.85-43.71-42.37-45.16V170.22z"/>
	</g>
</g>
</svg>
