<svg width="250" height="250" viewBox="0 0 250 250" fill="none" xmlns="http://www.w3.org/2000/svg">
<mask id="mask0_26_97" style="mask-type:luminance" maskUnits="userSpaceOnUse" x="33" y="25" width="184" height="200">
<path d="M33.5 25H216.5V225H33.5V25Z" fill="white"/>
</mask>
<g mask="url(#mask0_26_97)">
<path d="M180.073 25.1821H46.5833C46.1563 25.1821 45.7292 25.2056 45.3021 25.2472C44.8776 25.2915 44.4557 25.354 44.0365 25.4373C43.6172 25.5233 43.2031 25.6274 42.7943 25.7524C42.3854 25.8774 41.9844 26.0233 41.5885 26.1873C41.1953 26.3514 40.8099 26.5337 40.4323 26.7368C40.0547 26.9373 39.6901 27.1587 39.3333 27.3957C38.9792 27.6353 38.6354 27.8905 38.3073 28.1613C37.9766 28.4321 37.6589 28.7212 37.3594 29.0233C37.0573 29.3254 36.7708 29.6431 36.5 29.9738C36.2292 30.3045 35.974 30.6483 35.737 31.0024C35.5 31.3592 35.2812 31.7264 35.0781 32.104C34.8776 32.479 34.6953 32.867 34.5313 33.2603C34.3698 33.6561 34.224 34.0597 34.1016 34.4686C33.9766 34.8774 33.8724 35.2915 33.7917 35.7108C33.7083 36.13 33.6432 36.5519 33.6016 36.979C33.5599 37.4035 33.5391 37.8306 33.5391 38.2577V198.633C33.5391 198.685 33.5391 198.739 33.5391 198.792C33.5417 199.643 33.5859 200.495 33.6693 201.341C33.7552 202.19 33.8802 203.031 34.0469 203.867C34.2161 204.703 34.4245 205.528 34.6719 206.344C34.9193 207.159 35.2083 207.961 35.5339 208.747C35.862 209.534 36.2266 210.302 36.6276 211.055C37.0313 211.805 37.4688 212.536 37.9427 213.245C38.4167 213.953 38.9245 214.635 39.4635 215.294C40.0052 215.953 40.5781 216.583 41.1797 217.185C41.7839 217.786 42.4141 218.359 43.0729 218.901C43.7318 219.44 44.4141 219.948 45.1224 220.422C45.8307 220.896 46.5599 221.333 47.3125 221.734C48.0651 222.135 48.8333 222.5 49.6198 222.828C50.4063 223.153 51.2083 223.44 52.0234 223.69C52.8385 223.937 53.6641 224.146 54.5 224.312C55.3359 224.479 56.1771 224.604 57.026 224.69C57.8724 224.773 58.724 224.818 59.5755 224.818H180.083C180.302 224.818 180.518 224.797 180.732 224.755C180.945 224.711 181.154 224.648 181.357 224.565C181.557 224.482 181.75 224.377 181.932 224.258C182.112 224.135 182.281 223.997 182.435 223.844C182.591 223.69 182.729 223.521 182.849 223.338C182.971 223.159 183.073 222.966 183.156 222.763C183.24 222.562 183.305 222.354 183.346 222.14C183.388 221.924 183.411 221.708 183.411 221.492V124.232C183.914 123.497 184.247 122.69 184.409 121.812C184.451 121.536 184.518 121.265 184.609 121C184.701 120.734 184.815 120.479 184.953 120.234C185.089 119.989 185.247 119.76 185.424 119.544C185.602 119.325 185.797 119.127 186.01 118.945C186.224 118.763 186.453 118.601 186.695 118.461C186.938 118.32 187.19 118.2 187.453 118.107C187.716 118.01 187.987 117.937 188.263 117.89C188.539 117.841 188.815 117.818 189.096 117.82C190.122 117.825 191.047 118.138 191.867 118.755C192.177 118.966 192.503 119.151 192.846 119.307C193.188 119.463 193.539 119.591 193.904 119.685C194.266 119.781 194.635 119.846 195.008 119.88C195.383 119.911 195.758 119.911 196.13 119.88C196.505 119.849 196.875 119.786 197.237 119.693C197.602 119.596 197.953 119.471 198.297 119.318C198.638 119.161 198.964 118.979 199.276 118.768C199.586 118.557 199.875 118.32 200.146 118.06L207.297 110.909C207.568 110.64 207.813 110.351 208.031 110.039C208.25 109.729 208.44 109.401 208.602 109.055C208.763 108.711 208.893 108.354 208.992 107.987C209.089 107.617 209.154 107.245 209.188 106.864C209.219 106.484 209.216 106.107 209.182 105.726C209.148 105.346 209.078 104.974 208.979 104.607C208.878 104.239 208.745 103.885 208.581 103.542C208.417 103.198 208.224 102.87 208.003 102.56C207.401 101.747 207.099 100.833 207.094 99.8228C207.094 99.5415 207.117 99.2603 207.167 98.9816C207.216 98.7056 207.289 98.4347 207.388 98.1691C207.484 97.9035 207.604 97.6509 207.747 97.4061C207.891 97.1639 208.055 96.9347 208.24 96.7212C208.422 96.5077 208.625 96.3123 208.844 96.1327C209.063 95.9556 209.294 95.7993 209.542 95.6613C209.789 95.5259 210.047 95.4139 210.313 95.3228C210.581 95.2316 210.854 95.1665 211.133 95.1248C211.505 95.0597 211.867 94.9634 212.224 94.8358C212.578 94.7082 212.919 94.5493 213.245 94.3618C213.573 94.1743 213.88 93.9582 214.172 93.716C214.461 93.4738 214.727 93.2082 214.969 92.9191C215.211 92.6327 215.427 92.3228 215.617 91.9972C215.805 91.6691 215.964 91.3306 216.091 90.9738C216.221 90.6196 216.318 90.2577 216.383 89.8853C216.448 89.5155 216.482 89.1405 216.479 88.7629V78.6274C216.482 78.2498 216.451 77.8748 216.385 77.4998C216.32 77.1274 216.224 76.7655 216.094 76.4087C215.964 76.0545 215.805 75.7134 215.615 75.3853C215.422 75.0597 215.206 74.7524 214.958 74.4634C214.714 74.1769 214.445 73.9113 214.151 73.6717C213.859 73.4321 213.547 73.2212 213.216 73.0363C212.885 72.8514 212.542 72.6978 212.185 72.5754C211.826 72.453 211.461 72.3644 211.086 72.3045C210.888 72.2759 210.693 72.2316 210.5 72.1743C210.307 72.1196 210.117 72.0519 209.935 71.9712C209.75 71.8905 209.573 71.7993 209.398 71.6978C209.227 71.5936 209.063 71.4816 208.904 71.3566C208.745 71.2342 208.596 71.0988 208.456 70.9582C208.313 70.8149 208.182 70.6639 208.06 70.5024C207.938 70.3436 207.828 70.1769 207.727 70.0024C207.625 69.8306 207.536 69.6509 207.458 69.466C207.383 69.2785 207.315 69.091 207.263 68.8957C207.208 68.703 207.167 68.5077 207.138 68.3071C207.109 68.1092 207.094 67.9087 207.091 67.7082C207.089 67.5077 207.099 67.3071 207.12 67.1092C207.143 66.9087 207.177 66.7108 207.224 66.5155C207.273 66.3228 207.333 66.13 207.404 65.9425C207.477 65.755 207.56 65.5728 207.654 65.3957C207.75 65.2186 207.854 65.0493 207.971 64.8853C208.81 63.7577 209.229 62.492 209.229 61.0858C209.227 60.2316 209.06 59.4087 208.732 58.6196C208.404 57.8306 207.935 57.1353 207.331 56.5311L200.169 49.4009C199.901 49.13 199.612 48.8853 199.299 48.6665C198.99 48.4478 198.661 48.2577 198.315 48.0962C197.969 47.9347 197.615 47.8045 197.245 47.7056C196.878 47.6092 196.503 47.5441 196.125 47.5103C195.745 47.479 195.365 47.4816 194.984 47.5155C194.607 47.5519 194.232 47.6196 193.865 47.7212C193.497 47.8202 193.143 47.953 192.799 48.117C192.456 48.2811 192.128 48.4738 191.818 48.6952C191.005 49.2967 190.094 49.5962 189.083 49.6014C188.802 49.6014 188.521 49.578 188.245 49.5285C187.966 49.479 187.695 49.4061 187.43 49.3071C187.167 49.2108 186.911 49.091 186.669 48.9478C186.427 48.8045 186.198 48.6405 185.984 48.4582C185.771 48.2733 185.576 48.0728 185.396 47.854C185.219 47.6353 185.063 47.4009 184.924 47.1535C184.789 46.9087 184.677 46.6509 184.586 46.3827C184.495 46.117 184.43 45.8436 184.388 45.5649C184.224 44.6795 183.891 43.8644 183.391 43.1196V28.5076C183.391 28.2915 183.37 28.0754 183.326 27.8618C183.284 27.6483 183.221 27.4399 183.138 27.2368C183.055 27.0363 182.953 26.8462 182.831 26.6639C182.711 26.4816 182.573 26.3149 182.419 26.1587C182.266 26.005 182.099 25.867 181.917 25.7446C181.737 25.6248 181.544 25.5207 181.344 25.4373C181.143 25.354 180.935 25.2915 180.721 25.2472C180.508 25.203 180.292 25.1821 180.073 25.1821ZM176.745 40.1847H167.883C167.503 40.1873 167.128 40.2212 166.753 40.2889C166.38 40.3566 166.016 40.4582 165.661 40.591C165.305 40.7212 164.964 40.8853 164.638 41.078C164.31 41.2707 164.003 41.4894 163.714 41.7368C163.427 41.9842 163.161 42.255 162.922 42.5467C162.682 42.841 162.469 43.1535 162.284 43.4842C162.099 43.8149 161.943 44.1587 161.82 44.5181C161.695 44.8774 161.604 45.242 161.544 45.617C161.5 45.8957 161.432 46.1665 161.341 46.4295C161.25 46.6952 161.135 46.9504 161 47.1952C160.862 47.4399 160.706 47.6691 160.529 47.8879C160.349 48.104 160.154 48.3019 159.94 48.4842C159.727 48.6665 159.5 48.828 159.258 48.9686C159.016 49.1092 158.763 49.229 158.5 49.3254C158.237 49.4217 157.966 49.492 157.69 49.5415C157.414 49.5884 157.135 49.6118 156.854 49.6092C155.844 49.6066 154.932 49.3045 154.117 48.7056C153.995 48.6144 153.865 48.5363 153.727 48.466C153.422 48.2759 153.102 48.1144 152.766 47.9764C152.432 47.841 152.091 47.7342 151.737 47.6535C151.385 47.5754 151.031 47.5259 150.669 47.5077C150.31 47.4894 149.951 47.4998 149.591 47.5389C149.234 47.5806 148.883 47.6509 148.534 47.7524C148.188 47.8514 147.852 47.979 147.529 48.1353C147.203 48.2915 146.893 48.4738 146.599 48.6821C146.305 48.8905 146.029 49.1196 145.773 49.3748L138.62 56.5233C138.352 56.7915 138.112 57.0806 137.896 57.3905C137.68 57.7004 137.492 58.0259 137.333 58.3696C137.177 58.7108 137.049 59.0649 136.953 59.4295C136.857 59.7941 136.792 60.1639 136.76 60.5415C136.729 60.9165 136.732 61.2941 136.766 61.6691C136.799 62.0441 136.867 62.4139 136.969 62.7785C137.068 63.1431 137.198 63.4946 137.359 63.8358C137.521 64.1769 137.711 64.5024 137.93 64.8097C138.432 65.5259 138.719 66.3228 138.789 67.1952C138.732 67.1952 138.674 67.1795 138.615 67.1795H126.938C126.529 67.1769 126.125 67.2108 125.724 67.2811C125.32 67.3514 124.93 67.4582 124.547 67.5988C124.164 67.7394 123.797 67.9113 123.445 68.117C123.094 68.3228 122.763 68.5571 122.453 68.8228C122.143 69.0858 121.857 69.3774 121.599 69.6925C121.341 70.0077 121.112 70.341 120.914 70.6978C120.714 71.0545 120.549 71.4243 120.417 71.8097C120.284 72.1952 120.185 72.5884 120.122 72.992C120.083 73.242 120.026 73.4868 119.956 73.7316C119.883 73.9738 119.797 74.2108 119.695 74.4425C119.594 74.6743 119.477 74.9009 119.346 75.117C119.216 75.3332 119.073 75.5415 118.914 75.742C118.758 75.9399 118.589 76.1274 118.406 76.3045C118.227 76.4816 118.034 76.6483 117.833 76.7993C117.63 76.953 117.419 77.091 117.201 77.2186C116.979 77.3436 116.753 77.4556 116.518 77.5519C116.284 77.6483 116.044 77.7316 115.799 77.7967C115.557 77.8618 115.307 77.9139 115.057 77.9478C114.807 77.9842 114.555 78.0024 114.302 78.005C114.047 78.0077 113.794 77.992 113.544 77.9634C113.292 77.9347 113.044 77.8879 112.797 77.828C112.552 77.7655 112.31 77.6873 112.076 77.5962C111.839 77.505 111.609 77.3983 111.388 77.2759C111.164 77.1535 110.951 77.0207 110.745 76.8696C110.417 76.63 110.07 76.4217 109.703 76.2446C109.339 76.0649 108.958 75.9217 108.568 75.8097C108.174 75.7004 107.776 75.6248 107.372 75.5832C106.966 75.5441 106.56 75.5415 106.154 75.5728C105.747 75.604 105.349 75.6717 104.956 75.7759C104.56 75.88 104.18 76.0181 103.81 76.1873C103.44 76.3592 103.089 76.5623 102.755 76.7967C102.422 77.0285 102.112 77.2915 101.826 77.5806L93.5651 85.841C93.276 86.1274 93.013 86.4373 92.7786 86.7733C92.5443 87.1066 92.3438 87.4582 92.1719 87.828C92 88.1978 91.862 88.578 91.7578 88.9738C91.6563 89.367 91.5885 89.7681 91.5547 90.1743C91.5234 90.5806 91.526 90.9842 91.5677 91.3905C91.6068 91.7967 91.6823 92.1952 91.7943 92.5884C91.9036 92.979 92.0495 93.3592 92.2266 93.7238C92.4063 94.091 92.6146 94.4399 92.8542 94.7681C93.0026 94.9738 93.138 95.1873 93.2604 95.4087C93.3802 95.6327 93.487 95.8618 93.5807 96.0962C93.6719 96.3332 93.7474 96.5754 93.8099 96.8202C93.8698 97.0649 93.9167 97.3149 93.9453 97.5675C93.974 97.8175 93.9896 98.0702 93.9844 98.3228C93.9818 98.578 93.9635 98.828 93.9297 99.0806C93.8932 99.3306 93.8438 99.578 93.776 99.8228C93.7109 100.068 93.6276 100.307 93.5313 100.542C93.4349 100.776 93.3229 101.002 93.1979 101.221C93.0703 101.443 92.9323 101.653 92.7786 101.854C92.625 102.057 92.4609 102.247 92.2839 102.43C92.1068 102.609 91.9193 102.778 91.7188 102.935C91.5208 103.094 91.3125 103.237 91.0964 103.367C90.8776 103.497 90.6536 103.612 90.4219 103.713C90.1901 103.815 89.9531 103.903 89.7083 103.974C89.4661 104.047 89.2188 104.101 88.9688 104.14C88.5677 104.203 88.1719 104.302 87.7891 104.435C87.4036 104.568 87.0339 104.734 86.6771 104.932C86.3229 105.133 85.987 105.359 85.6719 105.62C85.3568 105.877 85.0677 106.161 84.8047 106.471C84.5391 106.781 84.3047 107.112 84.099 107.463C83.8932 107.815 83.7214 108.182 83.5807 108.565C83.4427 108.948 83.3359 109.338 83.2656 109.739C83.1953 110.14 83.1615 110.544 83.1641 110.953V122.635C83.1615 123.042 83.1953 123.445 83.2656 123.846C83.3359 124.247 83.4427 124.64 83.5833 125.023C83.7214 125.406 83.8958 125.773 84.1016 126.125C84.3073 126.476 84.5417 126.807 84.8047 127.117C85.0703 127.427 85.3594 127.711 85.6745 127.969C85.9896 128.226 86.3255 128.456 86.6797 128.653C87.0365 128.854 87.4063 129.018 87.7917 129.151C88.1771 129.284 88.5703 129.383 88.9714 129.445C89.2214 129.484 89.4688 129.542 89.7135 129.612C89.9557 129.682 90.1927 129.771 90.4245 129.872C90.6563 129.974 90.8828 130.088 91.099 130.221C91.3177 130.351 91.526 130.495 91.724 130.651C91.9219 130.807 92.112 130.976 92.2891 131.159C92.4661 131.338 92.6302 131.531 92.7839 131.734C92.9375 131.935 93.0755 132.146 93.2005 132.367C93.3281 132.586 93.4401 132.812 93.5365 133.047C93.6328 133.281 93.7135 133.521 93.7813 133.765C93.8464 134.01 93.8984 134.258 93.9323 134.51C93.9661 134.76 93.9844 135.013 93.987 135.265C93.9896 135.521 93.9766 135.771 93.9479 136.023C93.9167 136.276 93.8724 136.523 93.8099 136.771C93.7474 137.015 93.6719 137.258 93.5781 137.492C93.487 137.729 93.3802 137.958 93.2578 138.18C93.1354 138.403 93 138.617 92.8516 138.82C92.612 139.151 92.4036 139.497 92.2266 139.864C92.0469 140.232 91.9036 140.609 91.7917 141.002C91.6823 141.393 91.6068 141.792 91.5677 142.198C91.5286 142.604 91.5234 143.01 91.5573 143.414C91.5885 143.82 91.6563 144.221 91.7604 144.614C91.8646 145.008 92 145.39 92.1719 145.76C92.3438 146.13 92.5469 146.482 92.7786 146.815C93.013 147.148 93.276 147.458 93.5651 147.745L101.823 156.002C102.109 156.292 102.419 156.555 102.753 156.789C103.086 157.023 103.438 157.224 103.807 157.396C104.177 157.568 104.56 157.706 104.953 157.807C105.349 157.911 105.747 157.979 106.154 158.013C106.56 158.044 106.966 158.042 107.372 158C107.779 157.961 108.177 157.885 108.568 157.773C108.961 157.664 109.339 157.518 109.706 157.341C110.073 157.161 110.419 156.953 110.75 156.711C110.956 156.562 111.169 156.43 111.391 156.307C111.615 156.187 111.844 156.081 112.078 155.987C112.315 155.896 112.557 155.82 112.802 155.758C113.047 155.698 113.297 155.651 113.549 155.622C113.799 155.594 114.052 155.578 114.305 155.583C114.56 155.586 114.813 155.604 115.063 155.638C115.313 155.674 115.56 155.724 115.805 155.792C116.049 155.857 116.289 155.94 116.523 156.036C116.758 156.133 116.984 156.245 117.203 156.372C117.424 156.497 117.635 156.638 117.836 156.789C118.039 156.943 118.229 157.109 118.411 157.286C118.591 157.463 118.76 157.651 118.917 157.851C119.076 158.049 119.219 158.258 119.349 158.474C119.479 158.693 119.594 158.917 119.695 159.148C119.797 159.38 119.885 159.62 119.956 159.862C120.026 160.104 120.083 160.351 120.122 160.601C120.185 161.005 120.284 161.398 120.417 161.784C120.549 162.169 120.716 162.539 120.914 162.893C121.112 163.25 121.341 163.586 121.599 163.901C121.859 164.216 122.143 164.505 122.453 164.768C122.763 165.034 123.094 165.268 123.445 165.474C123.797 165.68 124.164 165.851 124.547 165.992C124.93 166.133 125.323 166.237 125.724 166.307C126.125 166.377 126.529 166.411 126.938 166.411H138.615C139.023 166.411 139.427 166.377 139.828 166.307C140.229 166.237 140.622 166.133 141.005 165.992C141.388 165.851 141.755 165.68 142.107 165.474C142.458 165.268 142.789 165.031 143.099 164.768C143.409 164.502 143.693 164.213 143.953 163.898C144.211 163.583 144.44 163.247 144.638 162.893C144.839 162.536 145.003 162.167 145.135 161.781C145.268 161.396 145.367 161 145.43 160.599C145.469 160.349 145.526 160.101 145.596 159.859C145.669 159.617 145.755 159.377 145.857 159.146C145.958 158.914 146.076 158.69 146.206 158.474C146.336 158.258 146.479 158.049 146.638 157.849C146.794 157.651 146.964 157.463 147.143 157.286C147.326 157.109 147.516 156.945 147.719 156.792C147.922 156.638 148.133 156.5 148.352 156.375C148.57 156.247 148.797 156.138 149.031 156.039C149.266 155.943 149.505 155.862 149.75 155.794C149.995 155.729 150.242 155.68 150.492 155.643C150.742 155.609 150.995 155.591 151.247 155.588C151.503 155.586 151.755 155.599 152.005 155.627C152.258 155.659 152.505 155.703 152.753 155.765C152.997 155.825 153.237 155.903 153.474 155.995C153.711 156.086 153.94 156.193 154.161 156.315C154.383 156.435 154.596 156.57 154.802 156.719C155.13 156.958 155.479 157.169 155.844 157.349C156.211 157.526 156.591 157.672 156.982 157.784C157.375 157.893 157.773 157.969 158.177 158.01C158.583 158.049 158.99 158.055 159.396 158.021C159.802 157.989 160.203 157.922 160.596 157.818C160.99 157.713 161.372 157.575 161.742 157.403C162.112 157.234 162.464 157.031 162.797 156.797C163.13 156.562 163.44 156.299 163.727 156.01L171.987 147.752C172.276 147.463 172.539 147.153 172.771 146.82C173.005 146.487 173.208 146.135 173.38 145.765C173.552 145.396 173.688 145.013 173.792 144.62C173.896 144.226 173.964 143.825 173.995 143.419C174.029 143.013 174.023 142.607 173.984 142.203C173.943 141.797 173.867 141.398 173.758 141.005C173.646 140.614 173.503 140.234 173.323 139.867C173.146 139.502 172.938 139.153 172.695 138.825C172.547 138.62 172.411 138.406 172.289 138.182C172.167 137.961 172.06 137.732 171.966 137.495C171.875 137.26 171.797 137.018 171.734 136.771C171.672 136.526 171.625 136.276 171.596 136.026C171.565 135.773 171.552 135.521 171.555 135.265C171.557 135.013 171.576 134.76 171.609 134.508C171.643 134.258 171.693 134.008 171.76 133.763C171.826 133.518 171.909 133.278 172.005 133.044C172.102 132.81 172.214 132.583 172.339 132.362C172.464 132.14 172.604 131.93 172.758 131.726C172.909 131.526 173.076 131.333 173.253 131.151C173.43 130.971 173.617 130.802 173.818 130.643C174.016 130.487 174.224 130.341 174.443 130.211C174.661 130.081 174.885 129.963 175.117 129.862C175.349 129.76 175.589 129.674 175.831 129.601C176.076 129.531 176.323 129.474 176.573 129.435C176.63 129.435 176.682 129.401 176.74 129.393V172.729H70.9089V31.8358H176.745V40.1847ZM172.969 101.708C172.872 101.708 172.779 101.708 172.688 101.708C172.419 101.341 172.198 100.948 172.021 100.531C171.82 100.062 171.682 99.578 171.609 99.0728C171.534 98.5675 171.526 98.0649 171.586 97.5571C171.643 97.0519 171.766 96.5623 171.953 96.0884C172.141 95.6144 172.383 95.1717 172.688 94.7629C172.927 94.4321 173.135 94.0858 173.315 93.7186C173.492 93.3514 173.638 92.9738 173.75 92.5806C173.859 92.1899 173.935 91.7915 173.977 91.3853C174.016 90.979 174.021 90.5728 173.987 90.1665C173.956 89.7603 173.888 89.3618 173.784 88.966C173.682 88.5728 173.544 88.1899 173.372 87.8202C173.201 87.4504 173 87.0988 172.766 86.7655C172.531 86.4321 172.271 86.1222 171.982 85.8358L163.729 77.5728C163.286 77.1248 162.789 76.7472 162.242 76.4373C161.693 76.1274 161.112 75.8983 160.5 75.7498C159.891 75.5988 159.268 75.5363 158.641 75.5571C158.01 75.578 157.396 75.6847 156.794 75.8748C157.029 75.3957 157.281 74.9269 157.555 74.4712C157.828 74.0129 158.122 73.5702 158.435 73.1379C158.75 72.7082 159.081 72.2915 159.432 71.8905C159.781 71.4894 160.148 71.104 160.534 70.7342C160.919 70.367 161.318 70.0155 161.734 69.6821C162.148 69.3488 162.578 69.0337 163.023 68.7394C163.466 68.4425 163.922 68.1691 164.391 67.9139C164.859 67.6587 165.339 67.4269 165.826 67.2134C166.315 67.0024 166.813 66.8123 167.318 66.6431C167.823 66.4764 168.336 66.3306 168.854 66.2082C169.372 66.0858 169.896 65.9868 170.424 65.9113C170.951 65.8358 171.482 65.7837 172.013 65.755C172.544 65.7264 173.078 65.7212 173.609 65.7394C174.143 65.7577 174.672 65.7993 175.201 65.8644C175.729 65.9295 176.255 66.0181 176.776 66.1327C177.297 66.2446 177.813 66.38 178.32 66.5363C178.831 66.6952 179.331 66.8748 179.823 67.078C180.318 67.2811 180.799 67.505 181.273 67.7498C181.745 67.9946 182.206 68.2603 182.656 68.5467C183.104 68.8332 183.542 69.1405 183.964 69.4634C184.385 69.7889 184.792 70.1327 185.185 70.4946C185.576 70.854 185.951 71.2342 186.31 71.6274C186.667 72.0233 187.008 72.4321 187.328 72.8566C187.651 73.2811 187.953 73.7186 188.234 74.1717C188.518 74.6222 188.781 75.0858 189.021 75.5623C189.263 76.0363 189.484 76.5207 189.682 77.0155C189.88 77.5103 190.057 78.0129 190.211 78.5233C190.365 79.0337 190.495 79.5493 190.604 80.0702C190.711 80.591 190.797 81.117 190.857 81.6457C190.919 82.1769 190.956 82.7082 190.971 83.2394C190.984 83.7733 190.977 84.3045 190.943 84.8358C190.909 85.3696 190.852 85.8983 190.773 86.4243C190.693 86.9504 190.589 87.4738 190.464 87.992C190.336 88.5077 190.188 89.0207 190.016 89.5233C189.844 90.0285 189.648 90.5233 189.432 91.0103C189.216 91.4972 188.979 91.9738 188.721 92.4399C188.464 92.9061 188.185 93.3618 187.885 93.8019C187.586 94.242 187.268 94.6717 186.932 95.0832C186.596 95.4972 186.242 95.8931 185.87 96.2759C185.497 96.6561 185.109 97.0207 184.706 97.3696C184.302 97.716 183.883 98.0441 183.448 98.354C183.016 98.6639 182.568 98.953 182.109 99.2238C181.651 99.4946 181.18 99.7446 180.698 99.9712C180.216 100.2 179.727 100.406 179.227 100.591C178.727 100.776 178.221 100.94 177.706 101.078C177.193 101.219 176.672 101.336 176.148 101.43C175.622 101.523 175.096 101.594 174.565 101.64C174.034 101.687 173.503 101.708 172.969 101.708ZM159.021 82.2655L167.307 90.841C167.148 91.0597 167 91.2811 166.857 91.5077C166.714 91.7342 166.578 91.966 166.448 92.2004C166.32 92.4347 166.201 92.6743 166.086 92.9165C165.974 93.1613 165.867 93.4061 165.771 93.6561C165.674 93.9061 165.583 94.1587 165.503 94.4139C165.422 94.6691 165.349 94.9269 165.284 95.1873C165.219 95.4478 165.161 95.7082 165.115 95.9712C165.065 96.2342 165.026 96.4998 164.995 96.7655C164.964 97.0337 164.94 97.2993 164.927 97.5675C164.911 97.8358 164.906 98.1014 164.909 98.3696C164.911 98.6379 164.922 98.9061 164.943 99.1743C164.964 99.4399 164.99 99.7056 165.029 99.9712C165.065 100.237 165.109 100.502 165.164 100.763C165.216 101.026 165.279 101.286 165.349 101.547C165.419 101.805 165.497 102.06 165.583 102.315C165.672 102.568 165.766 102.818 165.867 103.065C165.971 103.312 166.081 103.557 166.198 103.797C166.318 104.039 166.443 104.276 166.576 104.508C166.708 104.739 166.849 104.969 166.997 105.193C167.146 105.417 167.299 105.633 167.461 105.849C167.622 106.062 167.792 106.271 167.966 106.474C168.141 106.674 168.323 106.872 168.51 107.065C168.698 107.255 168.891 107.44 169.089 107.62C169.289 107.799 169.495 107.971 169.703 108.138C169.914 108.305 170.13 108.463 170.352 108.614C170.57 108.768 170.797 108.914 171.026 109.052C171.255 109.19 171.49 109.32 171.727 109.443C171.966 109.565 172.206 109.68 172.453 109.789C172.698 109.896 172.945 109.995 173.198 110.088C173.451 110.18 173.703 110.263 173.961 110.338C174.219 110.414 174.477 110.482 174.74 110.542C175 110.599 175.263 110.651 175.529 110.693L175.93 108.174H175.987L175.734 110.945L175.529 122.867C174.464 123.034 173.438 123.333 172.451 123.765C171.464 124.195 170.547 124.747 169.703 125.414C168.857 126.083 168.112 126.846 167.464 127.708C166.815 128.568 166.286 129.497 165.878 130.492C165.469 131.515 165.188 132.573 165.039 133.664C164.891 134.755 164.878 135.846 165.003 136.943C165.125 138.036 165.38 139.099 165.768 140.13C166.156 141.161 166.664 142.13 167.292 143.034L158.711 151.315C157.841 150.68 156.906 150.164 155.904 149.771C154.898 149.375 153.862 149.114 152.792 148.989C151.721 148.864 150.654 148.875 149.586 149.026C148.518 149.177 147.487 149.461 146.495 149.877C145.482 150.31 144.536 150.859 143.659 151.526C142.781 152.193 142 152.956 141.313 153.818C140.628 154.677 140.055 155.609 139.602 156.612C139.146 157.614 138.82 158.659 138.625 159.742L126.703 159.534C126.536 158.469 126.237 157.445 125.807 156.458C125.375 155.471 124.826 154.555 124.156 153.708C123.49 152.864 122.727 152.117 121.865 151.469C121.005 150.823 120.078 150.294 119.081 149.885C117.518 149.237 115.893 148.911 114.203 148.914C112.839 148.927 111.505 149.138 110.201 149.544C108.898 149.95 107.682 150.534 106.549 151.299L98.2682 142.721C98.9036 141.851 99.4193 140.914 99.8125 139.909C100.206 138.906 100.466 137.87 100.591 136.799C100.716 135.729 100.706 134.659 100.555 133.594C100.404 132.526 100.122 131.495 99.7057 130.5C99.2734 129.487 98.7266 128.542 98.0599 127.664C97.3932 126.789 96.6276 126.008 95.7682 125.32C94.9063 124.633 93.974 124.062 92.9714 123.609C91.9688 123.153 90.9245 122.828 89.8411 122.635L90.0495 110.708C91.1146 110.542 92.1406 110.242 93.1276 109.812C94.1146 109.38 95.0313 108.831 95.875 108.161C96.7214 107.495 97.4661 106.729 98.1146 105.87C98.763 105.008 99.2917 104.081 99.7005 103.083C100.109 102.062 100.391 101.005 100.539 99.9139C100.685 98.8228 100.698 97.729 100.576 96.6353C100.451 95.5415 100.195 94.479 99.8099 93.4478C99.4219 92.4191 98.9141 91.4504 98.2865 90.5467L106.862 82.2603C107.734 82.8983 108.669 83.4113 109.674 83.8071C110.677 84.2004 111.714 84.4608 112.784 84.5858C113.854 84.7134 114.924 84.7004 115.992 84.5493C117.06 84.3983 118.091 84.1144 119.083 83.6978C120.096 83.2655 121.042 82.7186 121.919 82.0519C122.797 81.3853 123.578 80.6196 124.263 79.7603C124.951 78.8983 125.521 77.966 125.977 76.9634C126.432 75.9608 126.758 74.9165 126.953 73.8332L138.875 74.0415C139.042 75.1066 139.341 76.1327 139.773 77.1196C140.203 78.1066 140.753 79.0207 141.422 79.867C142.089 80.7108 142.852 81.4582 143.714 82.1066C144.573 82.755 145.5 83.2837 146.497 83.6925C147.518 84.1014 148.573 84.3774 149.664 84.5259C150.753 84.6717 151.846 84.6821 152.938 84.5597C154.031 84.4347 155.091 84.1795 156.122 83.7941C157.151 83.4061 158.117 82.9009 159.021 82.2733V82.2655ZM40.1953 38.2577C40.1953 37.8384 40.2344 37.4217 40.3151 37.0077C40.3984 36.5962 40.5182 36.1951 40.6771 35.8071C40.8385 35.4191 41.0339 35.0493 41.2682 34.6978C41.5 34.3488 41.7656 34.0259 42.0625 33.7264C42.3594 33.4295 42.6797 33.1613 43.0286 32.9269C43.3776 32.6925 43.7474 32.4946 44.1354 32.3332C44.5234 32.1717 44.9219 32.0467 45.3333 31.9634C45.7474 31.88 46.1615 31.8384 46.5833 31.8358H64.2552V172.729H59.5755C57.7448 172.732 55.9349 172.922 54.1432 173.307C52.3542 173.693 50.6224 174.258 48.9531 175.01C47.2839 175.76 45.7109 176.677 44.2344 177.76C42.7578 178.844 41.4115 180.068 40.1953 181.437V38.2577ZM176.755 218.164H59.5755C58.9427 218.164 58.3099 218.13 57.6771 218.068C57.0469 218.005 56.4193 217.911 55.7969 217.789C55.1745 217.664 54.5599 217.51 53.9531 217.325C53.3464 217.14 52.75 216.927 52.1641 216.685C51.5781 216.443 51.0052 216.172 50.4479 215.872C49.888 215.573 49.3438 215.247 48.8151 214.896C48.2891 214.542 47.7786 214.164 47.2891 213.763C46.7995 213.362 46.3281 212.935 45.8802 212.487C45.4323 212.039 45.0052 211.57 44.6042 211.081C44.2005 210.591 43.8229 210.081 43.4688 209.555C43.1172 209.026 42.7891 208.484 42.4896 207.924C42.1901 207.367 41.9193 206.794 41.6745 206.208C41.4323 205.622 41.2188 205.026 41.0339 204.419C40.8464 203.812 40.6927 203.198 40.5677 202.575C40.4427 201.956 40.349 201.328 40.2839 200.698C40.2214 200.065 40.1901 199.432 40.1875 198.799V198.617C40.1927 197.984 40.2292 197.354 40.2969 196.726C40.3646 196.099 40.4635 195.476 40.5911 194.859C40.7188 194.239 40.8776 193.63 41.0651 193.026C41.2526 192.424 41.4688 191.831 41.7135 191.25C41.9583 190.667 42.2318 190.099 42.5339 189.544C42.8333 188.989 43.1615 188.45 43.5156 187.927C43.8672 187.403 44.2474 186.898 44.6484 186.414C45.0521 185.927 45.4766 185.461 45.9245 185.015C46.375 184.573 46.8438 184.151 47.3333 183.75C47.8203 183.351 48.3281 182.976 48.8542 182.627C49.3802 182.278 49.9219 181.956 50.4792 181.659C51.0365 181.362 51.6068 181.094 52.1901 180.854C52.776 180.612 53.3698 180.401 53.974 180.216C54.5781 180.034 55.1901 179.88 55.8073 179.758C56.4271 179.635 57.0521 179.542 57.6797 179.479C58.3073 179.417 58.9375 179.385 59.5703 179.385H176.755V218.164ZM189.068 56.255C190.221 56.2785 191.344 56.104 192.435 55.729C193.526 55.354 194.521 54.8019 195.414 54.0728L202.586 60.9191C202.008 61.7056 201.542 62.5519 201.182 63.4582C200.826 64.3644 200.586 65.3019 200.471 66.2707C200.354 67.2368 200.362 68.2056 200.495 69.1717C200.628 70.1353 200.88 71.0702 201.255 71.9686C201.602 72.8566 202.06 73.6795 202.628 74.4425C203.198 75.2056 203.857 75.8774 204.607 76.4634C205.357 77.0493 206.169 77.5259 207.047 77.8905C207.924 78.2577 208.836 78.5024 209.779 78.6248L209.995 88.5623C209.328 88.6665 208.677 88.828 208.042 89.0467C207.404 89.2655 206.792 89.5389 206.203 89.867C205.615 90.1952 205.06 90.5728 204.539 90.9998C204.018 91.4295 203.539 91.8983 203.102 92.4113C202.664 92.9243 202.276 93.4712 201.938 94.0519C201.599 94.6353 201.313 95.242 201.081 95.8748C200.849 96.5077 200.677 97.1561 200.56 97.8202C200.445 98.4842 200.388 99.1509 200.393 99.8254C200.37 100.979 200.544 102.101 200.922 103.193C201.299 104.284 201.852 105.276 202.581 106.172L195.734 113.354C194.768 112.646 193.719 112.107 192.581 111.734C191.443 111.362 190.276 111.174 189.081 111.174C187.875 111.177 186.703 111.367 185.557 111.742C184.414 112.117 183.357 112.659 182.385 113.372V110.945C182.385 109.476 181.958 108.146 181.104 106.953C181.604 106.778 182.099 106.588 182.586 106.38C183.073 106.174 183.555 105.953 184.026 105.713C184.5 105.476 184.966 105.224 185.422 104.956C185.88 104.69 186.328 104.406 186.766 104.112C187.206 103.815 187.633 103.505 188.052 103.18C188.471 102.857 188.88 102.518 189.276 102.169C189.674 101.818 190.06 101.456 190.432 101.081C190.807 100.706 191.169 100.318 191.516 99.9191C191.865 99.5207 192.201 99.1118 192.523 98.6899C192.846 98.2707 193.154 97.841 193.448 97.4009C193.745 96.9608 194.023 96.5129 194.289 96.0545C194.555 95.5962 194.807 95.13 195.042 94.6561C195.276 94.1821 195.497 93.7004 195.703 93.2108C195.906 92.7238 196.096 92.229 196.268 91.7264C196.44 91.2264 196.596 90.7212 196.737 90.2108C196.878 89.7004 197 89.1847 197.109 88.6665C197.216 88.1483 197.305 87.6274 197.378 87.1014C197.453 86.578 197.508 86.0519 197.547 85.5233C197.586 84.9946 197.609 84.466 197.615 83.9373C197.62 83.4061 197.609 82.8774 197.581 82.3488C197.552 81.8202 197.505 81.2915 197.443 80.7681C197.38 80.242 197.299 79.7186 197.203 79.1978C197.107 78.6769 196.995 78.1587 196.865 77.6457C196.734 77.1327 196.589 76.6248 196.424 76.1196C196.263 75.6144 196.083 75.117 195.888 74.6248C195.695 74.1327 195.484 73.6457 195.258 73.1691C195.031 72.6899 194.792 72.2186 194.534 71.755C194.279 71.2915 194.008 70.8358 193.721 70.3905C193.435 69.9452 193.135 69.5077 192.82 69.0832C192.508 68.6561 192.18 68.2394 191.839 67.8332C191.5 67.4295 191.146 67.0337 190.779 66.6509C190.414 66.2681 190.036 65.8983 189.646 65.5415C189.255 65.1821 188.854 64.8358 188.443 64.505C188.029 64.1717 187.607 63.854 187.174 63.5467C186.742 63.242 186.299 62.9504 185.849 62.6743C185.396 62.3983 184.938 62.1353 184.469 61.8905C184 61.6431 183.523 61.4113 183.042 61.1952C182.557 60.979 182.068 60.7785 181.57 60.5936C181.076 60.4087 180.573 60.2394 180.065 60.0858C179.56 59.9347 179.047 59.7993 178.531 59.6795C178.016 59.5597 177.495 59.4556 176.974 59.3696C176.451 59.2837 175.927 59.216 175.398 59.1639C174.872 59.1118 174.344 59.0754 173.815 59.0571C173.286 59.0389 172.755 59.0389 172.227 59.0545C171.698 59.0702 171.169 59.104 170.641 59.1535C170.115 59.203 169.589 59.2707 169.068 59.354C168.544 59.4373 168.023 59.5389 167.508 59.6561C166.992 59.7733 166.479 59.9087 165.971 60.0571C165.464 60.2082 164.961 60.3748 164.464 60.5571C163.966 60.742 163.477 60.9399 162.992 61.1535C162.508 61.367 162.031 61.5988 161.563 61.8436C161.094 62.0884 160.63 62.3488 160.18 62.6222C159.727 62.8983 159.284 63.1873 158.849 63.492C158.414 63.7941 157.992 64.1118 157.578 64.4425C157.164 64.7733 156.76 65.117 156.37 65.4738C155.979 65.8306 155.599 66.2004 155.232 66.5806C154.865 66.9608 154.508 67.354 154.167 67.7577C153.826 68.1613 153.495 68.578 153.18 69.0024C152.865 69.4269 152.563 69.8618 152.276 70.3071C151.987 70.7524 151.714 71.2056 151.456 71.6665C151.198 72.13 150.956 72.6014 150.727 73.078C150.5 73.5571 150.286 74.0415 150.089 74.5337C149.893 75.0233 149.714 75.5207 149.547 76.0259C149.383 76.5285 149.234 77.0363 149.102 77.5493L149.026 77.5259C148.552 77.3358 148.112 77.0884 147.703 76.7837C147.297 76.479 146.932 76.1274 146.617 75.7264C146.302 75.328 146.042 74.8931 145.839 74.4269C145.638 73.9582 145.497 73.4712 145.422 72.9686C145.318 72.3462 145.128 71.7472 144.857 71.1769C145.271 70.0181 145.492 68.8202 145.523 67.5884C145.542 66.4295 145.365 65.3019 144.987 64.2056C144.612 63.1118 144.06 62.1118 143.333 61.2082L150.174 54.0597C150.281 54.1379 150.391 54.2134 150.508 54.2785C151.443 54.9191 152.451 55.4061 153.534 55.7394C154.615 56.0754 155.721 56.242 156.854 56.242C157.518 56.255 158.174 56.2082 158.831 56.0988C159.484 55.992 160.122 55.828 160.745 55.604C161.37 55.38 161.969 55.104 162.542 54.7707C163.115 54.4373 163.654 54.0571 164.156 53.6274C164.659 53.1978 165.12 52.7238 165.539 52.2108C165.956 51.6978 166.326 51.1483 166.643 50.5675C166.961 49.9868 167.224 49.3827 167.432 48.7524C167.641 48.1248 167.792 47.4816 167.883 46.8254L177.753 46.6431C177.776 46.6665 177.81 46.6769 177.836 46.7004C177.94 47.3618 178.104 48.0129 178.323 48.6457C178.544 49.2811 178.818 49.8905 179.146 50.4764C179.474 51.0623 179.852 51.6144 180.279 52.1327C180.706 52.6509 181.174 53.1274 181.688 53.5623C182.198 53.9972 182.745 54.3853 183.326 54.7212C183.906 55.0597 184.513 55.3436 185.143 55.5728C185.776 55.8019 186.422 55.9738 187.083 56.0884C187.745 56.203 188.411 56.2603 189.083 56.255H189.068Z" fill="url(#paint0_linear_26_97)"/>
</g>
<path d="M104.871 116.781C104.871 117.695 104.918 118.607 105.007 119.516C105.095 120.427 105.23 121.328 105.408 122.224C105.587 123.123 105.809 124.008 106.074 124.88C106.34 125.755 106.647 126.615 106.996 127.458C107.345 128.305 107.736 129.128 108.168 129.935C108.598 130.74 109.066 131.524 109.574 132.284C110.082 133.044 110.626 133.776 111.204 134.482C111.785 135.19 112.397 135.865 113.046 136.511C113.691 137.159 114.366 137.771 115.074 138.352C115.78 138.93 116.512 139.474 117.272 139.982C118.033 140.49 118.816 140.958 119.621 141.391C120.428 141.82 121.251 142.211 122.098 142.56C122.941 142.909 123.801 143.216 124.676 143.482C125.548 143.748 126.434 143.969 127.332 144.149C128.228 144.326 129.129 144.461 130.04 144.55C130.949 144.641 131.861 144.685 132.775 144.685C133.689 144.685 134.6 144.641 135.509 144.55C136.418 144.461 137.322 144.326 138.217 144.149C139.113 143.969 139.999 143.748 140.874 143.482C141.749 143.216 142.608 142.909 143.452 142.56C144.296 142.211 145.121 141.82 145.928 141.391C146.733 140.958 147.517 140.49 148.277 139.982C149.035 139.474 149.77 138.93 150.475 138.352C151.181 137.771 151.858 137.159 152.504 136.511C153.15 135.865 153.764 135.19 154.342 134.482C154.923 133.776 155.467 133.044 155.975 132.284C156.483 131.524 156.952 130.74 157.382 129.935C157.814 129.128 158.204 128.305 158.553 127.458C158.902 126.615 159.21 125.755 159.475 124.88C159.741 124.008 159.962 123.123 160.142 122.224C160.319 121.328 160.452 120.427 160.543 119.516C160.632 118.607 160.676 117.695 160.676 116.781C160.676 115.867 160.632 114.956 160.543 114.047C160.452 113.138 160.319 112.235 160.142 111.339C159.962 110.443 159.741 109.557 159.475 108.682C159.21 107.807 158.902 106.948 158.553 106.104C158.204 105.261 157.814 104.435 157.382 103.628C156.952 102.823 156.483 102.039 155.975 101.279C155.467 100.521 154.923 99.7866 154.342 99.0809C153.764 98.3752 153.15 97.6981 152.504 97.0522C151.858 96.4064 151.181 95.7918 150.475 95.2137C149.77 94.633 149.035 94.0887 148.277 93.5809C147.517 93.0731 146.733 92.6043 145.928 92.1746C145.121 91.7424 144.296 91.3517 143.452 91.0028C142.608 90.6538 141.749 90.3465 140.874 90.0809C139.999 89.8153 139.113 89.5939 138.217 89.4142C137.322 89.2371 136.418 89.1043 135.509 89.0132C134.6 88.9246 133.689 88.8804 132.775 88.8804C131.861 88.8804 130.949 88.9272 130.04 89.0184C129.132 89.1095 128.23 89.245 127.335 89.422C126.439 89.6017 125.553 89.8257 124.681 90.0913C123.806 90.3569 122.947 90.6642 122.103 91.0158C121.259 91.3647 120.436 91.7554 119.632 92.1877C118.824 92.62 118.043 93.0887 117.283 93.5965C116.525 94.1043 115.793 94.6486 115.085 95.2267C114.379 95.8075 113.704 96.4194 113.059 97.0653C112.413 97.7111 111.798 98.3882 111.22 99.0939C110.639 99.7996 110.098 100.531 109.59 101.292C109.082 102.05 108.611 102.833 108.181 103.638C107.749 104.443 107.358 105.268 107.009 106.112C106.658 106.956 106.35 107.813 106.085 108.688C105.819 109.56 105.595 110.445 105.415 111.341C105.236 112.237 105.1 113.138 105.012 114.047C104.921 114.958 104.874 115.867 104.871 116.781ZM154.022 116.781C154.022 117.477 153.988 118.172 153.921 118.865C153.853 119.557 153.749 120.245 153.613 120.927C153.478 121.61 153.309 122.284 153.108 122.951C152.905 123.615 152.671 124.271 152.405 124.914C152.139 125.555 151.842 126.185 151.514 126.797C151.186 127.412 150.829 128.008 150.441 128.586C150.056 129.164 149.642 129.724 149.199 130.261C148.759 130.8 148.29 131.315 147.798 131.807C147.306 132.3 146.793 132.766 146.254 133.206C145.715 133.649 145.158 134.063 144.579 134.448C144.001 134.836 143.405 135.193 142.79 135.521C142.176 135.849 141.548 136.146 140.905 136.412C140.262 136.68 139.608 136.912 138.941 137.115C138.277 137.318 137.603 137.485 136.921 137.623C136.238 137.758 135.551 137.86 134.858 137.927C134.165 137.995 133.47 138.029 132.775 138.029C132.079 138.029 131.384 137.995 130.691 137.927C129.999 137.86 129.311 137.758 128.629 137.623C127.947 137.485 127.272 137.318 126.605 137.115C125.941 136.912 125.285 136.68 124.645 136.412C124.001 136.146 123.371 135.849 122.759 135.521C122.145 135.193 121.548 134.836 120.97 134.448C120.392 134.063 119.832 133.649 119.296 133.206C118.757 132.766 118.241 132.3 117.749 131.807C117.259 131.315 116.79 130.8 116.35 130.261C115.908 129.724 115.493 129.164 115.108 128.586C114.72 128.008 114.363 127.412 114.035 126.797C113.707 126.185 113.41 125.555 113.145 124.914C112.879 124.271 112.645 123.615 112.441 122.951C112.238 122.284 112.072 121.61 111.934 120.927C111.798 120.245 111.697 119.557 111.629 118.865C111.561 118.172 111.527 117.477 111.527 116.781C111.527 116.086 111.561 115.391 111.629 114.698C111.697 114.005 111.798 113.318 111.934 112.636C112.072 111.953 112.238 111.279 112.441 110.615C112.645 109.948 112.879 109.294 113.145 108.651C113.41 108.008 113.707 107.38 114.035 106.766C114.363 106.151 114.72 105.555 115.108 104.977C115.493 104.399 115.908 103.841 116.35 103.302C116.79 102.763 117.259 102.25 117.749 101.758C118.241 101.266 118.757 100.8 119.296 100.357C119.832 99.9142 120.392 99.5002 120.97 99.1147C121.548 98.7293 122.145 98.37 122.759 98.0418C123.371 97.7137 124.001 97.4168 124.645 97.1512C125.285 96.8856 125.941 96.6512 126.605 96.4481C127.272 96.2476 127.947 96.0783 128.629 95.9429C129.311 95.8075 129.999 95.7033 130.691 95.6356C131.384 95.5679 132.079 95.534 132.775 95.534C133.47 95.534 134.165 95.5705 134.855 95.6382C135.548 95.7085 136.236 95.8101 136.918 95.9455C137.6 96.0835 138.275 96.2528 138.939 96.4559C139.605 96.6564 140.259 96.8908 140.902 97.159C141.543 97.4246 142.173 97.7215 142.785 98.0496C143.4 98.3778 143.993 98.7371 144.574 99.1226C145.152 99.5106 145.71 99.9246 146.246 100.365C146.785 100.807 147.298 101.274 147.79 101.766C148.283 102.258 148.749 102.771 149.191 103.31C149.632 103.847 150.046 104.404 150.434 104.985C150.819 105.563 151.178 106.156 151.507 106.771C151.835 107.383 152.132 108.013 152.397 108.654C152.665 109.297 152.9 109.951 153.103 110.617C153.303 111.281 153.473 111.956 153.611 112.638C153.746 113.32 153.848 114.008 153.918 114.701C153.986 115.393 154.022 116.086 154.022 116.781Z" fill="url(#paint1_linear_26_97)"/>
<defs>
<linearGradient id="paint0_linear_26_97" x1="125.009" y1="25.1821" x2="125.009" y2="224.818" gradientUnits="userSpaceOnUse">
<stop stop-color="#00A4D8"/>
<stop offset="1" stop-color="#5D53A3"/>
</linearGradient>
<linearGradient id="paint1_linear_26_97" x1="132.773" y1="88.8804" x2="132.773" y2="144.685" gradientUnits="userSpaceOnUse">
<stop stop-color="#00A4D8"/>
<stop offset="1" stop-color="#5D53A3"/>
</linearGradient>
</defs>
</svg>
