<?xml version="1.0" encoding="utf-8"?>
<!-- Generator: Adobe Illustrator 29.8.2, SVG Export Plug-In . SVG Version: 9.03 Build 0)  -->
<svg version="1.0" id="Layer_1" xmlns="http://www.w3.org/2000/svg" xmlns:xlink="http://www.w3.org/1999/xlink" x="0px" y="0px"
	 viewBox="0 0 250 250" style="enable-background:new 0 0 250 250;" xml:space="preserve">
<style type="text/css">
	.st0{fill-rule:evenodd;clip-rule:evenodd;fill:url(#SVGID_1_);}
</style>
<g>
	<g>
		<linearGradient id="SVGID_1_" gradientUnits="userSpaceOnUse" x1="29.5021" y1="118.9758" x2="219.8555" y2="118.9758">
			<stop  offset="0" style="stop-color:#05A0D5"/>
			<stop  offset="1" style="stop-color:#4C62AD"/>
		</linearGradient>
		<path class="st0" d="M119.51,119.24h10.34c0.02,0,0.05-0.02,0.07-0.05c0.07-0.07,0.11-0.19,0.11-0.33V100.7
			c0-1.34,0.56-2.57,1.45-3.47l0,0c0.89-0.89,2.13-1.44,3.48-1.44h18.14c0.14,0,0.26-0.04,0.33-0.11c0.03-0.02,0.05-0.05,0.05-0.08
			V85.25c0-0.02-0.02-0.05-0.05-0.08c-0.07-0.07-0.19-0.11-0.33-0.11h-18.14c-1.35,0-2.59-0.55-3.48-1.44s-1.44-2.13-1.44-3.48
			V61.99c0-0.14-0.04-0.26-0.11-0.33c-0.03-0.03-0.06-0.05-0.08-0.05h-10.34c-0.02,0-0.05,0.02-0.08,0.05
			c-0.07,0.07-0.11,0.19-0.11,0.33v18.14c0,1.35-0.55,2.59-1.44,3.48l0,0c-0.89,0.89-2.13,1.45-3.47,1.45H96.25
			c-0.14,0-0.26,0.04-0.34,0.11c-0.03,0.02-0.05,0.05-0.05,0.08v10.34c0,0.02,0.02,0.05,0.05,0.08c0.07,0.07,0.19,0.11,0.34,0.11
			h18.14c1.35,0,2.58,0.55,3.48,1.44s1.44,2.12,1.44,3.48v18.15c0,0.14,0.04,0.26,0.11,0.33
			C119.46,119.22,119.49,119.24,119.51,119.24z M200.41,173.05c-3.49,1.89-6.89,3.65-11.37,5.84c-4.33,2.13-9.4,4.53-16.2,7.69
			l-1.17,4.36l2.63,0.71c1.26,0.33,2.01,1.63,1.67,2.89l-4.77,17.82c-0.34,1.26-1.63,2.01-2.89,1.67l-39.69-10.63
			c-1.26-0.34-2.01-1.63-1.67-2.89l4.78-17.81c0.33-1.26,1.63-2.01,2.89-1.67l2.63,0.71l3.39-12.63c0.06-0.24,0.12-0.48,0.19-0.71
			l0.06-0.21c0.01-0.07,0.04-0.13,0.06-0.2c1-3.34,2.58-6.33,4.75-8.95c2.27-2.74,5.14-5.08,8.64-6.99l22.4-12.89
			c2.04-1.17,4.36-1.4,6.45-0.84c2.05,0.55,3.91,1.87,5.09,3.83l0,0v0c0.08,0.11,0.14,0.23,0.2,0.36c0.6,1.12,0.93,2.33,1,3.52
			l0.84-0.48l11.66-43.64c1.06-3.93,4.04-5.81,7.31-6.12l0.07,0c1.18-0.1,2.4,0.01,3.57,0.32c1.17,0.31,2.28,0.82,3.26,1.49
			c2.66,1.84,4.32,4.86,3.38,8.58l-6.39,46.69l0,0.05c-0.47,4.13-1.76,7.88-3.88,11.24c-2.09,3.32-4.97,6.24-8.64,8.75l-0.04,0.03
			l0,0l-0.1,0.06l0,0l-0.04,0.03h0L200.41,173.05L200.41,173.05L200.41,173.05z M167.12,189.71l-25.31-6.78l3.64-13.55l0.01-0.08
			c0.82-2.73,2.11-5.16,3.87-7.3c2.03-2.46,4.71-4.54,8.03-6.26c0.17-0.08,0.32-0.18,0.46-0.3l21.26-12.24
			c0.9-0.52,1.94-0.62,2.89-0.36c0.95,0.25,1.79,0.86,2.31,1.75l0,0.01l0.07,0.13l0.01,0.01c0.45,0.87,0.52,1.84,0.28,2.73
			c-0.25,0.93-0.84,1.76-1.71,2.28l-0.04,0.02l-0.01,0v0l-0.12,0.07l0,0v0l-0.01,0l-11.74,6.78c-1.13,0.65-1.51,2.1-0.86,3.22
			c0.65,1.13,2.1,1.51,3.23,0.86l11.73-6.78c0.09-0.04,0.18-0.09,0.27-0.15v0l7.99-4.6c0.6-0.29,1.08-0.83,1.26-1.52l11.92-44.57
			c0.45-1.68,1.74-2.49,3.16-2.62l0.06,0c0.65-0.06,1.32,0,1.97,0.18c0.65,0.17,1.26,0.44,1.78,0.81c1.16,0.8,1.88,2.07,1.46,3.61h0
			c-0.02,0.09-0.04,0.19-0.06,0.29l-6.41,46.86c-0.01,0.05-0.01,0.11-0.02,0.16l-0.01,0.09l-0.14,1.02
			c-0.47,2.98-1.48,5.69-3.02,8.14c-1.73,2.74-4.15,5.18-7.26,7.32c-3.55,1.92-6.89,3.66-11.09,5.71c-4.18,2.05-9.51,4.57-17.11,8.1
			c-0.66,0.3-1.12,0.88-1.29,1.53L167.12,189.71z M138.34,186.89l-0.02,0l-0.02-0.01l-2.61-0.7l-3.55,13.25l35.13,9.42l3.55-13.25
			L138.34,186.89z M51.29,168.95c-3.11-2.14-5.53-4.58-7.26-7.32c-1.55-2.46-2.56-5.19-3.03-8.18l-0.13-0.94l-0.01-0.12
			c0-0.06-0.01-0.12-0.02-0.18l-6.41-46.84c-0.01-0.1-0.03-0.2-0.06-0.29h0c-0.41-1.54,0.31-2.81,1.46-3.61
			c0.53-0.36,1.14-0.64,1.79-0.81c0.64-0.17,1.31-0.24,1.96-0.18l0.06,0c1.42,0.13,2.71,0.95,3.16,2.62l11.92,44.57
			c0.18,0.69,0.66,1.23,1.27,1.52l7.89,4.54l0.23,0.13l0.02,0.01l11.86,6.85c1.13,0.65,2.57,0.27,3.22-0.86
			c0.65-1.13,0.27-2.57-0.86-3.22l-11.88-6.86c-0.9-0.52-1.51-1.36-1.76-2.31c-0.25-0.93-0.15-1.96,0.35-2.84l0.02-0.04l0,0
			l0.01-0.03c0.52-0.87,1.35-1.46,2.29-1.71c0.95-0.25,1.99-0.15,2.89,0.36l21.27,12.24c0.13,0.12,0.29,0.22,0.45,0.3
			c3.33,1.71,6,3.8,8.03,6.26c1.76,2.13,3.05,4.56,3.87,7.3l0.02,0.08l3.63,13.55l-25.3,6.78l-1.45-5.42
			c-0.17-0.66-0.63-1.23-1.29-1.53c-7.61-3.53-12.93-6.05-17.12-8.1C58.18,172.6,54.84,170.87,51.29,168.95z M77.68,190.93
			l-1.17-4.36c-6.81-3.16-11.87-5.56-16.2-7.69c-4.48-2.2-7.87-3.95-11.37-5.84l-0.01,0h0l-0.04-0.03h-0.01l-0.04-0.03l0,0
			l-0.09-0.06l0,0l-0.04-0.03c-3.67-2.51-6.55-5.42-8.64-8.75c-2.12-3.36-3.41-7.11-3.87-11.24l0-0.03l-6.39-46.71
			c-0.95-3.73,0.71-6.74,3.38-8.58c0.98-0.68,2.1-1.18,3.26-1.49c1.17-0.31,2.4-0.43,3.58-0.32l0.07,0
			c3.27,0.31,6.26,2.19,7.31,6.12l11.67,43.64l0.84,0.48c0.07-1.27,0.44-2.55,1.12-3.74l0.01-0.01c1.18-2.04,3.07-3.41,5.16-3.96
			c2.1-0.56,4.42-0.33,6.45,0.84l22.4,12.89c3.5,1.92,6.38,4.25,8.64,6.99c2.17,2.62,3.75,5.61,4.75,8.95
			c0.02,0.06,0.04,0.13,0.06,0.2l0.05,0.21c0.07,0.23,0.13,0.47,0.19,0.71l3.38,12.63l2.63-0.71c1.26-0.34,2.55,0.41,2.89,1.67
			l4.77,17.81c0.33,1.26-0.41,2.55-1.67,2.89l-39.69,10.63c-1.26,0.34-2.55-0.41-2.89-1.67l-4.77-17.82
			c-0.34-1.26,0.41-2.55,1.67-2.89L77.68,190.93z M111.07,186.88l-0.02,0.01l-0.02,0l-32.48,8.7l3.55,13.25l35.13-9.42l-3.55-13.25
			L111.07,186.88z M120.84,152.29c-51.22-34.54-69.69-65.87-70.66-88.82c-0.43-10.26,2.59-18.9,7.76-25.47
			c5.17-6.57,12.49-11.05,20.64-13.02c14.52-3.5,31.69,0.98,44.02,15.85c0.24,0.29,0.51,0.51,0.81,0.65l0.07,0.03
			c0.27,0.11,0.58,0.17,0.94,0.17c0.39,0,0.74-0.07,1.02-0.2c0.28-0.13,0.55-0.35,0.8-0.65c0.04-0.05,0.09-0.1,0.13-0.15
			c12.37-14.8,29.61-19.21,44.2-15.67c8.19,1.99,15.55,6.5,20.76,13.1s8.27,15.26,7.85,25.54c-0.94,22.93-19.33,54.18-70.41,88.63
			c-1.22,0.83-2.59,1.24-3.97,1.24S122.05,153.11,120.84,152.29z M54.89,63.29c-0.38-9.06,2.25-16.64,6.76-22.37
			c4.51-5.73,10.9-9.63,18.03-11.36c12.89-3.11,28.2,0.94,39.27,14.28c0.69,0.83,1.51,1.47,2.44,1.91l0.15,0.06
			c0.9,0.4,1.86,0.6,2.87,0.6c1.07,0,2.08-0.23,3.01-0.67c0.94-0.44,1.76-1.08,2.45-1.9l0.1-0.13
			c11.11-13.29,26.51-17.28,39.49-14.12c7.19,1.75,13.63,5.68,18.18,11.44c4.54,5.75,7.21,13.35,6.84,22.44
			c-0.88,21.63-18.73,51.44-68.34,84.9c-0.41,0.28-0.88,0.42-1.33,0.42s-0.92-0.14-1.33-0.42C73.72,114.82,55.81,84.94,54.89,63.29z
			 M129.85,123.97h-10.34c-1.39,0-2.64-0.6-3.54-1.56c-0.86-0.92-1.39-2.18-1.39-3.55V100.7c0-0.05-0.02-0.09-0.05-0.13
			c-0.03-0.03-0.08-0.05-0.13-0.05H96.25c-1.37,0-2.63-0.53-3.56-1.39c-0.96-0.9-1.56-2.15-1.56-3.54V85.25
			c0-1.39,0.6-2.64,1.57-3.54c0.92-0.86,2.18-1.39,3.55-1.39h18.14c0.05,0,0.1-0.02,0.13-0.05v-0.01c0.03-0.03,0.05-0.08,0.05-0.13
			V61.99c0-1.37,0.53-2.63,1.39-3.55c0.9-0.97,2.15-1.56,3.54-1.56h10.34c1.38,0,2.63,0.6,3.53,1.56c0.86,0.92,1.39,2.18,1.39,3.55
			v18.14c0,0.05,0.02,0.1,0.06,0.13c0.03,0.04,0.08,0.06,0.13,0.06h18.14c1.37,0,2.63,0.53,3.55,1.39c0.97,0.9,1.56,2.15,1.56,3.54
			v10.34c0,1.39-0.6,2.64-1.56,3.54c-0.92,0.86-2.18,1.39-3.55,1.39h-18.14c-0.05,0-0.1,0.02-0.13,0.05h-0.01
			c-0.03,0.03-0.05,0.08-0.05,0.13v18.15c0,1.37-0.53,2.63-1.39,3.55C132.49,123.37,131.24,123.97,129.85,123.97z"/>
	</g>
</g>
</svg>
