<svg width="250" height="250" viewBox="0 0 250 250" fill="none" xmlns="http://www.w3.org/2000/svg">
<mask id="mask0_26_104" style="mask-type:luminance" maskUnits="userSpaceOnUse" x="25" y="25" width="200" height="200">
<path d="M25 25H225V225H25V25Z" fill="white"/>
</mask>
<g mask="url(#mask0_26_104)">
<path fill-rule="evenodd" clip-rule="evenodd" d="M103.22 172.156H38.0924C30.9023 172.156 24.9961 166.25 24.9961 159.057V91.651C24.9961 84.4453 30.9023 78.5547 38.0924 78.5547H83.5013V31.4245C83.5013 27.901 86.3893 25.0156 89.9102 25.0156H218.587C222.129 25.0156 224.996 27.901 224.996 31.4245V100.622C224.996 104.161 222.129 107.029 218.587 107.029H161.293V114.086C162.348 114.135 163.405 114.219 164.467 114.331C173.702 115.299 182.168 118.487 189.395 123.305L188.934 121.695C188.535 120.294 189.348 118.833 190.746 118.435C192.147 118.036 193.605 118.846 194.007 120.247L196.684 129.622C196.905 130.404 196.757 131.242 196.28 131.898C195.803 132.552 195.051 132.953 194.241 132.982L184.496 133.333C183.043 133.385 181.819 132.247 181.767 130.792C181.712 129.339 182.853 128.115 184.306 128.063L186.879 127.971C180.251 123.458 172.447 120.471 163.915 119.576C136.332 116.669 111.618 136.677 108.712 164.26C107.553 175.286 110.056 185.849 115.233 194.747C115.965 196.005 115.538 197.62 114.28 198.352C113.022 199.083 111.408 198.656 110.676 197.398C106.29 189.865 103.642 181.253 103.22 172.156ZM83.5013 83.8281H38.0924C33.7982 83.8281 30.2695 87.3464 30.2695 91.651V92.1536H83.5013V83.8281ZM30.2695 97.4271V101.755H83.6029C83.5352 101.388 83.5013 101.008 83.5013 100.622V97.4271H30.2695ZM30.2695 107.029V159.057C30.2695 163.354 33.7982 166.88 38.0924 166.88H103.225C103.275 165.828 103.355 164.771 103.467 163.708C106.376 136.076 129.092 115.326 156.02 114.081V107.029H30.2695ZM89.9102 101.755H218.587C219.215 101.755 219.723 101.247 219.723 100.622V31.4245C219.723 30.7995 219.215 30.2891 218.587 30.2891H89.9102C89.2852 30.2891 88.7747 30.7995 88.7747 31.4245V100.622C88.7747 101.247 89.2852 101.755 89.9102 101.755ZM200.384 93.7604H108.113C106.658 93.7604 105.478 92.5807 105.478 91.125C105.478 87.4479 102.603 84.4453 99.0117 84.4453C97.556 84.4453 96.3763 83.263 96.3763 81.8073V50.2474C96.3763 48.7917 97.556 47.612 99.0117 47.612C102.603 47.612 105.478 44.599 105.478 40.9323C105.478 39.4766 106.658 38.2943 108.113 38.2943H200.384C201.84 38.2943 203.02 39.4766 203.02 40.9323C203.02 44.599 205.902 47.612 209.486 47.612C210.941 47.612 212.124 48.7917 212.124 50.2474V81.8073C212.124 83.263 210.941 84.4453 209.486 84.4453C205.902 84.4453 203.02 87.4479 203.02 91.125C203.02 92.5807 201.84 93.7604 200.384 93.7604ZM198.033 88.487C199.022 84.0104 202.478 80.4974 206.848 79.474V52.5807C202.478 51.5573 199.025 48.0391 198.033 43.5703C164.345 43.5703 144.165 43.5703 110.465 43.5703C109.475 48.0417 106.027 51.5573 101.65 52.5833V79.474C106.027 80.4948 109.478 84.0078 110.465 88.487H198.033ZM151.613 52.237V51.2318C151.613 49.776 152.793 48.5938 154.249 48.5938C155.704 48.5938 156.887 49.776 156.887 51.2318V52.2057C159.678 52.888 162.236 54.7214 163.572 57.9036C164.134 59.2448 163.504 60.7917 162.16 61.3542C160.819 61.9193 159.272 61.2865 158.71 59.9453C157.564 57.2161 154.499 56.6797 152.301 57.5443C151.092 58.0182 150.095 58.9766 150.163 60.3958C150.217 61.4844 150.944 62.0885 151.785 62.5C152.681 62.9375 153.717 63.1797 154.694 63.3385C159.012 64.0391 163.707 66.0495 164.324 71.1823C164.926 76.1224 161.059 79.0417 156.887 79.8906V80.8255C156.887 82.2786 155.704 83.4609 154.249 83.4609C152.793 83.4609 151.613 82.2786 151.613 80.8255V79.8542C148.113 79.0625 145.129 76.7057 144.191 72.9479C143.84 71.5365 144.699 70.1042 146.111 69.7526C147.525 69.3984 148.957 70.2604 149.309 71.6719C149.884 73.9844 152.238 74.9323 154.493 74.8776C155.512 74.8516 156.621 74.638 157.553 74.1797C158.47 73.7292 159.233 73.0052 159.09 71.8177L159.087 71.8125C158.936 70.5495 158.059 69.875 157.061 69.4219C156.056 68.9661 154.915 68.7188 153.848 68.5443H153.845C149.616 67.8516 145.147 65.6823 144.897 60.6563L144.895 60.6536C144.707 56.7839 147.074 53.9323 150.371 52.6354C150.772 52.4766 151.189 52.3438 151.613 52.237ZM80.418 119.393C84.3711 119.393 87.5977 122.622 87.5977 126.573V148.758C87.5977 152.711 84.3737 155.924 80.418 155.924H46.0534C42.1159 155.924 38.8867 152.714 38.8867 148.758V126.573C38.8867 122.62 42.1185 119.393 46.0534 119.393H80.418ZM55.0169 124.667H46.0534C45.0117 124.667 44.1602 125.526 44.1602 126.573V129.435H55.0169V124.667ZM66.194 124.667H60.2904V140.612H66.194V124.667ZM82.3242 129.435V126.573C82.3242 125.526 81.4674 124.667 80.418 124.667H71.4674V129.435H82.3242ZM82.3242 140.612V134.708H71.4674V140.612H82.3242ZM44.1602 145.885V148.758C44.1602 149.802 45.0143 150.651 46.0534 150.651H80.418C81.4648 150.651 82.3242 149.805 82.3242 148.758V145.885H44.1602ZM44.1602 134.708V140.612H55.0169V134.708H44.1602ZM166.52 132.995L167.595 138.654C169.876 139.315 172.079 140.227 174.16 141.372L178.923 138.133C179.97 137.419 181.374 137.552 182.27 138.448L189.725 145.904C190.621 146.799 190.754 148.206 190.043 149.253L186.801 154.016C187.947 156.096 188.861 158.297 189.52 160.578L195.178 161.656C196.423 161.891 197.324 162.979 197.324 164.245V174.789C197.324 176.057 196.423 177.143 195.178 177.38L189.52 178.458C188.861 180.74 187.947 182.94 186.801 185.021L190.043 189.784C190.754 190.831 190.621 192.237 189.725 193.133L182.27 200.589C181.374 201.484 179.97 201.617 178.923 200.904L174.16 197.664C172.079 198.81 169.876 199.721 167.595 200.383L166.52 206.042C166.283 207.286 165.194 208.185 163.928 208.185H153.384C152.118 208.185 151.03 207.286 150.793 206.042L149.717 200.383C147.436 199.721 145.233 198.81 143.152 197.664L138.389 200.904C137.342 201.617 135.939 201.484 135.043 200.589L127.587 193.133C126.691 192.237 126.559 190.831 127.27 189.784L130.512 185.021C129.366 182.94 128.452 180.74 127.793 178.458L122.134 177.38C120.889 177.143 119.988 176.057 119.988 174.789V164.245C119.988 162.979 120.889 161.891 122.134 161.656L127.793 160.578C128.452 158.297 129.366 156.096 130.512 154.016L127.27 149.253C126.559 148.206 126.691 146.799 127.587 145.904L135.043 138.448C135.939 137.552 137.342 137.419 138.389 138.133L143.152 141.372C145.233 140.227 147.436 139.315 149.717 138.654L150.793 132.995C151.03 131.75 152.118 130.852 153.384 130.852H163.928C165.194 130.852 166.283 131.75 166.52 132.995ZM161.746 136.125H155.566L154.587 141.276C154.392 142.302 153.608 143.117 152.592 143.354C149.707 144.021 146.954 145.161 144.444 146.729C143.556 147.281 142.428 147.258 141.564 146.672L137.228 143.721L132.858 148.091L135.809 152.427C136.397 153.289 136.418 154.419 135.866 155.305C134.301 157.818 133.16 160.57 132.491 163.453C132.257 164.471 131.441 165.253 130.415 165.448L125.262 166.43V172.607L130.415 173.589C131.441 173.784 132.257 174.565 132.491 175.583C133.16 178.466 134.301 181.219 135.866 183.732C136.418 184.617 136.397 185.747 135.809 186.609L132.858 190.945L137.228 195.315L141.564 192.365C142.428 191.779 143.556 191.755 144.444 192.307C146.954 193.875 149.707 195.016 152.592 195.682C153.608 195.919 154.392 196.732 154.587 197.758L155.566 202.911H161.746L162.725 197.758C162.921 196.732 163.704 195.919 164.72 195.682C167.605 195.016 170.358 193.875 172.868 192.307C173.757 191.755 174.884 191.779 175.749 192.365L180.085 195.315L184.454 190.945L181.504 186.609C180.915 185.747 180.892 184.617 181.447 183.732C183.012 181.219 184.152 178.466 184.822 175.583C185.056 174.565 185.871 173.784 186.897 173.589L192.051 172.607V166.43L186.897 165.448C185.871 165.253 185.056 164.471 184.822 163.453C184.152 160.57 183.012 157.818 181.447 155.305C180.892 154.419 180.915 153.289 181.504 152.427L184.454 148.091L180.085 143.721L175.749 146.672C174.884 147.258 173.757 147.281 172.868 146.729C170.358 145.161 167.605 144.021 164.72 143.354C163.704 143.117 162.921 142.302 162.725 141.276L161.746 136.125ZM158.658 189.057C147.897 189.057 139.116 180.279 139.116 169.518C139.116 158.758 147.897 149.977 158.658 149.977C169.415 149.977 178.197 158.758 178.197 169.518C178.197 180.279 169.415 189.057 158.658 189.057ZM158.658 183.784C166.512 183.784 172.923 177.375 172.923 169.518C172.923 161.661 166.512 155.253 158.658 155.253C150.801 155.253 144.389 161.661 144.389 169.518C144.389 177.375 150.801 183.784 158.658 183.784ZM130.434 211.065C137.059 215.578 144.868 218.563 153.397 219.461C180.98 222.367 205.694 202.359 208.6 174.776C209.759 163.755 207.262 153.188 202.079 144.292C201.348 143.034 201.772 141.417 203.03 140.685C204.288 139.953 205.905 140.378 206.637 141.635C212.366 151.469 215.126 163.148 213.845 175.328C210.634 205.81 183.327 227.917 152.845 224.706C143.613 223.734 135.145 220.547 127.918 215.732L128.376 217.341C128.777 218.742 127.965 220.203 126.566 220.602C125.165 221 123.704 220.19 123.306 218.789L120.629 209.411C120.408 208.633 120.556 207.794 121.033 207.138C121.509 206.482 122.259 206.083 123.069 206.055L132.816 205.703C134.27 205.651 135.493 206.789 135.546 208.242C135.598 209.698 134.46 210.922 133.007 210.974L130.434 211.065Z" fill="url(#paint0_linear_26_104)"/>
</g>
<defs>
<linearGradient id="paint0_linear_26_104" x1="124.996" y1="25.0156" x2="124.996" y2="225.016" gradientUnits="userSpaceOnUse">
<stop stop-color="#00A4D8"/>
<stop offset="1" stop-color="#5D53A3"/>
</linearGradient>
</defs>
</svg>
