<?xml version="1.0" encoding="utf-8"?>
<!-- Generator: Adobe Illustrator 29.8.2, SVG Export Plug-In . SVG Version: 9.03 Build 0)  -->
<svg version="1.0" id="Layer_1" xmlns="http://www.w3.org/2000/svg" xmlns:xlink="http://www.w3.org/1999/xlink" x="0px" y="0px"
	 viewBox="0 0 500 500" style="enable-background:new 0 0 500 500;" xml:space="preserve">
<style type="text/css">
	.st0{fill:#C9E8FA;}
	.st1{fill:#FFFFFF;}
	.st2{fill:#263156;}
	.st3{fill:#90DEFF;}
	.st4{fill:#0F97D0;}
	.st5{clip-path:url(#SVGID_00000070800819116627566030000004161427042771375748_);}
</style>
<g>
	<path class="st0" d="M120.1,137.72c48.82-49.15,34.84-79.95,68.25-102.7c51.41-35.01,147.34-4.89,203.94,43.27
		c69.32,58.98,105.09,166.68,64.34,264.11c-43.39,103.76-157.55,157.62-259.42,141.39c-90.97-14.49-180.4-86.2-189.35-172.2
		c-0.97-9.32-5.26-59.71,24.81-103.16C57.53,172.51,81.4,176.67,120.1,137.72"/>
	<path class="st1" d="M400.71,406.35c-1.57,0.19-3.01-0.92-3.2-2.49c-0.19-1.57,0.92-3.01,2.49-3.2c1.57-0.2,3.01,0.92,3.2,2.49
		C403.4,404.72,402.28,406.16,400.71,406.35"/>
	<path class="st2" d="M405.93,44.89c-0.11,0.03-0.23,0.07-0.34,0.11c-0.7,0.28-1.26,0.82-1.55,1.52c-0.3,0.7-0.31,1.47-0.03,2.17
		c0.29,0.7,0.82,1.26,1.52,1.55c0.69,0.3,1.46,0.31,2.17,0.03c1.45-0.58,2.16-2.23,1.58-3.69c-0.28-0.7-0.82-1.26-1.52-1.55
		C407.18,44.78,406.54,44.73,405.93,44.89z M407.66,51.52c-0.86,0.23-1.77,0.16-2.59-0.19c-0.99-0.42-1.75-1.21-2.15-2.2
		c-0.4-1-0.39-2.09,0.04-3.08c0.43-0.99,1.2-1.75,2.2-2.15c0.99-0.4,2.08-0.39,3.07,0.04c0.98,0.42,1.75,1.2,2.15,2.2
		c0.83,2.06-0.18,4.4-2.23,5.22C407.98,51.43,407.82,51.48,407.66,51.52"/>
	<path class="st2" d="M381.69,34.77C381.69,34.77,381.69,34.77,381.69,34.77c-0.42,0.2-0.93,0.02-1.13-0.4l-1.19-2.5
		c-0.2-0.42-0.03-0.92,0.4-1.12c0,0,0,0,0.01,0c0.42-0.2,0.92-0.03,1.12,0.4l1.19,2.49C382.28,34.06,382.1,34.56,381.69,34.77"/>
	<path class="st2" d="M385.85,43.5L385.85,43.5c-0.43,0.2-0.93,0.03-1.13-0.4l-1.19-2.49c-0.2-0.42-0.02-0.92,0.4-1.12
		c0-0.01,0.01-0.01,0.01-0.01c0.42-0.2,0.93-0.02,1.12,0.4l1.19,2.5C386.45,42.8,386.27,43.3,385.85,43.5"/>
	<path class="st2" d="M380.06,39.39l-2.49,1.2c-0.42,0.2-0.92,0.03-1.12-0.39c-0.2-0.42-0.03-0.92,0.39-1.12c0-0.01,0-0.01,0-0.01
		l2.49-1.2c0.42-0.2,0.93-0.03,1.12,0.4C380.66,38.68,380.48,39.19,380.06,39.39"/>
	<path class="st2" d="M388.78,35.18C388.78,35.18,388.78,35.18,388.78,35.18l-2.49,1.2c-0.42,0.2-0.92,0.03-1.12-0.39
		c-0.2-0.42-0.03-0.93,0.39-1.13l2.49-1.2c0.42-0.2,0.92-0.03,1.12,0.39C389.37,34.47,389.2,34.97,388.78,35.18"/>
	<path class="st2" d="M50.28,143.85c-0.22,0-0.44-0.09-0.6-0.26c-0.33-0.33-0.32-0.86,0.01-1.19l2.21-2.18
		c0.33-0.33,0.86-0.32,1.19,0.01c0.33,0.33,0.32,0.86-0.01,1.19l-2.21,2.18C50.71,143.77,50.49,143.85,50.28,143.85"/>
	<path class="st2" d="M42.53,151.49c-0.22,0-0.44-0.08-0.6-0.26c-0.33-0.33-0.32-0.86,0.01-1.19l2.22-2.18
		c0.33-0.33,0.86-0.32,1.19,0.01c0.33,0.33,0.32,0.86-0.01,1.19l-2.21,2.18C42.95,151.41,42.74,151.49,42.53,151.49"/>
	<path class="st2" d="M44.77,143.83c-0.22,0-0.43-0.08-0.6-0.25l-2.19-2.2c-0.33-0.33-0.33-0.86,0-1.19
		c0.33-0.33,0.86-0.33,1.19,0.01l2.2,2.2c0.33,0.33,0.33,0.86-0.01,1.2C45.2,143.74,44.98,143.83,44.77,143.83"/>
	<path class="st2" d="M52.45,151.54c-0.21,0-0.43-0.08-0.59-0.25l-2.2-2.2c-0.33-0.33-0.33-0.86,0.01-1.2
		c0.33-0.33,0.86-0.33,1.19,0.01l2.19,2.2c0.33,0.33,0.33,0.86,0,1.19C52.88,151.46,52.67,151.54,52.45,151.54"/>
	<path class="st3" d="M392.75,415.33c-1.54,1.98-4.4,2.34-6.38,0.8c-1.98-1.54-2.34-4.4-0.8-6.38c1.54-1.98,4.4-2.34,6.38-0.8
		C393.94,410.49,394.29,413.35,392.75,415.33"/>
	<path class="st2" d="M28.12,165.35c-0.12,0-0.26,0.01-0.39,0.02c-0.82,0.1-1.54,0.52-2.05,1.17c-0.51,0.65-0.73,1.45-0.62,2.27
		c0.1,0.81,0.52,1.54,1.16,2.05c0.65,0.51,1.46,0.73,2.27,0.62c0.82-0.1,1.54-0.52,2.05-1.16c0.51-0.65,0.73-1.46,0.62-2.27
		c-0.1-0.82-0.51-1.55-1.16-2.05C29.46,165.57,28.8,165.35,28.12,165.35z M28.1,173.19c-1.05,0-2.07-0.34-2.92-1
		c-1.01-0.78-1.64-1.91-1.8-3.17c-0.16-1.27,0.19-2.51,0.97-3.52c0.78-1.01,1.91-1.65,3.17-1.8c1.27-0.16,2.51,0.19,3.52,0.97
		c1.01,0.78,1.64,1.91,1.8,3.17c0.16,1.26-0.19,2.51-0.97,3.52c-0.78,1-1.91,1.64-3.17,1.8C28.51,173.18,28.3,173.19,28.1,173.19"/>
	<path class="st2" d="M271.25,107.32c-0.22,0-0.44-0.08-0.6-0.25c-0.33-0.33-0.32-0.86,0.01-1.19l2.21-2.18
		c0.33-0.33,0.86-0.33,1.19,0.01c0.33,0.33,0.32,0.87-0.01,1.19l-2.21,2.19C271.68,107.24,271.46,107.32,271.25,107.32"/>
	<path class="st2" d="M263.49,114.96c-0.22,0-0.43-0.08-0.6-0.25c-0.33-0.33-0.32-0.86,0.01-1.19l2.22-2.18
		c0.33-0.33,0.86-0.32,1.19,0.01c0.33,0.33,0.32,0.86-0.01,1.19l-2.21,2.18C263.92,114.88,263.71,114.96,263.49,114.96"/>
	<path class="st2" d="M265.73,107.3c-0.21,0-0.43-0.08-0.6-0.25l-2.19-2.2c-0.33-0.33-0.33-0.86,0-1.19s0.86-0.33,1.19,0l2.2,2.21
		c0.33,0.33,0.33,0.86,0,1.19C266.17,107.21,265.95,107.3,265.73,107.3"/>
	<path class="st2" d="M273.42,115.01c-0.22,0-0.44-0.08-0.6-0.25l-2.2-2.2c-0.33-0.33-0.33-0.86,0.01-1.19
		c0.33-0.33,0.86-0.33,1.19,0.01l2.19,2.2c0.33,0.33,0.33,0.86,0,1.19C273.85,114.92,273.64,115.01,273.42,115.01"/>
	<path class="st1" d="M435.5,325.6H82.95c-7.78,0-14.09-6.18-14.09-13.81V74.98c0-7.62,6.31-13.81,14.09-13.81H435.5
		c7.78,0,14.09,6.18,14.09,13.81V311.8C449.59,319.42,443.28,325.6,435.5,325.6"/>
	<path class="st2" d="M82.95,62.02c-7.3,0-13.24,5.82-13.24,12.96V311.8c0,7.15,5.94,12.96,13.24,12.96H435.5
		c7.3,0,13.24-5.82,13.24-12.96V74.98c0-7.15-5.94-12.96-13.24-12.96H82.95z M435.5,326.45H82.95c-8.23,0-14.93-6.57-14.93-14.65
		V74.98c0-8.08,6.7-14.65,14.93-14.65H435.5c8.23,0,14.93,6.57,14.93,14.65V311.8C450.43,319.88,443.73,326.45,435.5,326.45"/>
	<path class="st0" d="M82.95,66.57c-4.73,0-8.58,3.77-8.58,8.41V311.8c0,4.64,3.85,8.41,8.58,8.41H435.5c4.73,0,8.58-3.77,8.58-8.41
		V74.98c0-4.64-3.85-8.41-8.58-8.41H82.95"/>
	<path class="st2" d="M81.39,153.68c-0.47,0-0.85-0.38-0.85-0.84V80.31c0-4.25,3.53-7.71,7.85-7.71h13.42
		c0.47,0,0.84,0.38,0.84,0.84c0,0.47-0.38,0.84-0.84,0.84H88.39c-3.4,0-6.16,2.7-6.16,6.02v72.53
		C82.23,153.31,81.85,153.68,81.39,153.68"/>
	<path class="st2" d="M81.39,258.66c-0.47,0-0.85-0.38-0.85-0.84v-33.95c0-0.46,0.38-0.84,0.85-0.84c0.46,0,0.84,0.38,0.84,0.84
		v33.95C82.23,258.28,81.85,258.66,81.39,258.66"/>
	<path class="st2" d="M81.39,295.76c-0.47,0-0.85-0.38-0.85-0.85v-14.56c0-0.47,0.38-0.84,0.85-0.84c0.46,0,0.84,0.38,0.84,0.84
		v14.56C82.23,295.38,81.85,295.76,81.39,295.76"/>
	<path class="st2" d="M108.71,314.18H88.39c-4.33,0-7.85-3.46-7.85-7.71c0-0.47,0.38-0.85,0.85-0.85c0.46,0,0.84,0.38,0.84,0.85
		c0,3.32,2.76,6.02,6.16,6.02h20.32c0.47,0,0.84,0.38,0.84,0.85C109.55,313.8,109.18,314.18,108.71,314.18"/>
	<path class="st2" d="M431.52,314.18h-14.94c-0.46,0-0.84-0.38-0.84-0.84c0-0.47,0.38-0.85,0.84-0.85h14.94c2.59,0,4.7-2.1,4.7-4.7
		V80.31c0-3.32-2.76-6.02-6.16-6.02h-30.67c-0.47,0-0.85-0.38-0.85-0.84c0-0.46,0.38-0.84,0.85-0.84h30.67
		c4.33,0,7.85,3.46,7.85,7.71v227.48C437.91,311.31,435.04,314.18,431.52,314.18"/>
	<path class="st2" d="M306.2,74.29h-32.89c-0.47,0-0.85-0.38-0.85-0.84c0-0.46,0.38-0.84,0.85-0.84h32.89
		c0.46,0,0.84,0.38,0.84,0.84C307.05,73.91,306.67,74.29,306.2,74.29"/>
	<path class="st4" d="M252.17,29.83c0-4.37-3.54-7.91-7.91-7.91H121.15c-4.37,0-7.91,3.54-7.91,7.91v81.49
		c0,4.38,3.54,7.91,7.91,7.91h123.11c4.37,0,7.91-3.54,7.91-7.91V29.83"/>
	<path class="st1" d="M237.49,75.32c0,1.54-1.24,2.78-2.78,2.78H130.7c-1.54,0-2.78-1.24-2.78-2.78V34.89
		c0-1.54,1.24-2.78,2.78-2.78h104.01c1.54,0,2.78,1.24,2.78,2.78V75.32"/>
	<path class="st2" d="M138.98,58.84c-0.19,0-0.37-0.07-0.51-0.21l-4.39-4.39c-0.29-0.28-0.29-0.74,0-1.02l4.39-4.39
		c0.28-0.29,0.73-0.29,1.02,0c0.28,0.28,0.28,0.73,0,1.02l-3.89,3.88l3.89,3.88c0.28,0.28,0.28,0.74,0,1.02
		C139.34,58.78,139.16,58.84,138.98,58.84"/>
	<path class="st2" d="M226.43,58.84c-0.19,0-0.37-0.07-0.51-0.21c-0.29-0.28-0.29-0.74,0-1.02l3.88-3.88l-3.88-3.88
		c-0.29-0.29-0.29-0.74,0-1.02c0.28-0.29,0.73-0.29,1.02,0l4.39,4.39c0.29,0.28,0.29,0.74,0,1.02l-4.39,4.39
		C226.8,58.78,226.61,58.84,226.43,58.84"/>
	<path class="st2" d="M173.05,87.03c0,1.05-0.84,1.89-1.89,1.89c-1.04,0-1.89-0.84-1.89-1.89c0-1.04,0.85-1.89,1.89-1.89
		C172.21,85.14,173.05,85.98,173.05,87.03"/>
	<path class="st2" d="M184.59,87.03c0,1.05-0.84,1.89-1.89,1.89s-1.89-0.84-1.89-1.89c0-1.04,0.84-1.89,1.89-1.89
		S184.59,85.98,184.59,87.03"/>
	<path class="st2" d="M196.14,87.03c0,1.05-0.85,1.89-1.89,1.89s-1.89-0.84-1.89-1.89c0-1.04,0.85-1.89,1.89-1.89
		S196.14,85.98,196.14,87.03"/>
	<path class="st0" d="M176.94,105.61c0,1.54-1.24,2.78-2.78,2.78H130.7c-1.54,0-2.78-1.24-2.78-2.78v-6.59
		c0-1.54,1.24-2.78,2.78-2.78h43.46c1.54,0,2.78,1.24,2.78,2.78V105.61"/>
	<path class="st0" d="M237.49,105.61c0,1.54-1.24,2.78-2.78,2.78h-43.46c-1.54,0-2.78-1.24-2.78-2.78v-6.59
		c0-1.54,1.24-2.78,2.78-2.78h43.46c1.54,0,2.78,1.24,2.78,2.78V105.61"/>
	<path class="st4" d="M251.18,159.45c0-4.37-3.54-7.91-7.91-7.91H120.15c-4.37,0-7.91,3.54-7.91,7.91v81.5
		c0,4.37,3.54,7.91,7.91,7.91h123.11c4.37,0,7.91-3.54,7.91-7.91V159.45"/>
	<path class="st0" d="M160.18,192.4c0,1.54-1.24,2.78-2.78,2.78h-27.7c-1.54,0-2.78-1.24-2.78-2.78v-27.4
		c0-1.53,1.24-2.78,2.78-2.78h27.7c1.53,0,2.78,1.25,2.78,2.78V192.4"/>
	<path class="st1" d="M198.34,192.4c0,1.54-1.24,2.78-2.78,2.78h-27.7c-1.53,0-2.78-1.24-2.78-2.78v-27.4
		c0-1.53,1.24-2.78,2.78-2.78h27.7c1.54,0,2.78,1.25,2.78,2.78V192.4"/>
	<path class="st0" d="M236.49,192.4c0,1.54-1.24,2.78-2.78,2.78h-27.69c-1.54,0-2.78-1.24-2.78-2.78v-27.4
		c0-1.53,1.24-2.78,2.78-2.78h27.69c1.54,0,2.78,1.25,2.78,2.78V192.4"/>
	<path class="st0" d="M160.18,205.49c0,1.54-1.24,2.78-2.78,2.78h-27.7c-1.54,0-2.78-1.24-2.78-2.78v-0.26
		c0-1.54,1.24-2.78,2.78-2.78h27.7c1.53,0,2.78,1.24,2.78,2.78V205.49"/>
	<path class="st1" d="M195.56,208.28h-27.7c-1.53,0-2.78-1.24-2.78-2.78v-0.26c0-1.54,1.24-2.78,2.78-2.78h27.7
		c1.54,0,2.78,1.24,2.78,2.78v0.26C198.34,207.03,197.09,208.28,195.56,208.28"/>
	<path class="st0" d="M236.49,205.49c0,1.54-1.24,2.78-2.78,2.78h-27.69c-1.54,0-2.78-1.24-2.78-2.78v-0.26
		c0-1.54,1.24-2.78,2.78-2.78h27.69c1.54,0,2.78,1.24,2.78,2.78V205.49"/>
	<path class="st0" d="M156.7,216.21h-6.94c-0.4,0-0.72-0.32-0.72-0.72c0-0.4,0.32-0.72,0.72-0.72h6.94c0.4,0,0.72,0.33,0.72,0.72
		C157.42,215.89,157.1,216.21,156.7,216.21"/>
	<path class="st0" d="M145.95,216.21H130.4c-0.4,0-0.72-0.32-0.72-0.72c0-0.4,0.32-0.72,0.72-0.72h15.55c0.4,0,0.72,0.33,0.72,0.72
		C146.67,215.89,146.35,216.21,145.95,216.21"/>
	<path class="st0" d="M156.7,220.34h-16.72c-0.4,0-0.72-0.32-0.72-0.72c0-0.4,0.32-0.72,0.72-0.72h16.72c0.4,0,0.72,0.32,0.72,0.72
		C157.42,220.02,157.1,220.34,156.7,220.34"/>
	<path class="st0" d="M136.09,220.34h-5.69c-0.4,0-0.72-0.32-0.72-0.72c0-0.4,0.32-0.72,0.72-0.72h5.69c0.4,0,0.72,0.32,0.72,0.72
		C136.82,220.02,136.49,220.34,136.09,220.34"/>
	<path class="st0" d="M156.7,224.48h-26.3c-0.4,0-0.72-0.32-0.72-0.72c0-0.4,0.32-0.72,0.72-0.72h26.3c0.4,0,0.72,0.32,0.72,0.72
		C157.42,224.16,157.1,224.48,156.7,224.48"/>
	<path class="st0" d="M194.86,216.21H179.9c-0.4,0-0.72-0.32-0.72-0.72c0-0.4,0.32-0.72,0.72-0.72h14.96c0.4,0,0.72,0.33,0.72,0.72
		C195.58,215.89,195.26,216.21,194.86,216.21"/>
	<path class="st0" d="M175.95,216.21h-7.39c-0.4,0-0.72-0.32-0.72-0.72c0-0.4,0.32-0.72,0.72-0.72h7.39c0.4,0,0.72,0.33,0.72,0.72
		C176.67,215.89,176.34,216.21,175.95,216.21"/>
	<path class="st0" d="M194.86,220.34h-26.3c-0.4,0-0.72-0.32-0.72-0.72c0-0.4,0.32-0.72,0.72-0.72h26.3c0.4,0,0.72,0.32,0.72,0.72
		C195.58,220.02,195.26,220.34,194.86,220.34"/>
	<path class="st0" d="M194.86,224.48h-4.82c-0.4,0-0.72-0.32-0.72-0.72c0-0.4,0.32-0.72,0.72-0.72h4.82c0.4,0,0.72,0.32,0.72,0.72
		C195.58,224.16,195.26,224.48,194.86,224.48"/>
	<path class="st0" d="M186.21,224.48h-17.65c-0.4,0-0.72-0.32-0.72-0.72c0-0.4,0.32-0.72,0.72-0.72h17.65c0.4,0,0.72,0.32,0.72,0.72
		C186.93,224.16,186.61,224.48,186.21,224.48"/>
	<path class="st0" d="M233.02,216.21h-15.93c-0.4,0-0.72-0.32-0.72-0.72c0-0.4,0.32-0.72,0.72-0.72h15.93c0.4,0,0.72,0.33,0.72,0.72
		C233.74,215.89,233.41,216.21,233.02,216.21"/>
	<path class="st0" d="M212.85,216.21h-6.14c-0.4,0-0.72-0.32-0.72-0.72c0-0.4,0.33-0.72,0.72-0.72h6.14c0.4,0,0.72,0.33,0.72,0.72
		C213.58,215.89,213.26,216.21,212.85,216.21"/>
	<path class="st0" d="M233.02,220.34h-4.96c-0.4,0-0.72-0.32-0.72-0.72c0-0.4,0.33-0.72,0.72-0.72h4.96c0.4,0,0.72,0.32,0.72,0.72
		C233.74,220.02,233.41,220.34,233.02,220.34"/>
	<path class="st0" d="M223.92,220.34h-17.2c-0.4,0-0.72-0.32-0.72-0.72c0-0.4,0.33-0.72,0.72-0.72h17.2c0.4,0,0.72,0.32,0.72,0.72
		C224.64,220.02,224.32,220.34,223.92,220.34"/>
	<path class="st0" d="M233.02,224.48H219.3c-0.4,0-0.72-0.32-0.72-0.72c0-0.4,0.32-0.72,0.72-0.72h13.71c0.4,0,0.72,0.32,0.72,0.72
		C233.74,224.16,233.41,224.48,233.02,224.48"/>
	<path class="st0" d="M215.32,224.48h-8.6c-0.4,0-0.72-0.32-0.72-0.72c0-0.4,0.33-0.72,0.72-0.72h8.6c0.4,0,0.72,0.32,0.72,0.72
		C216.04,224.16,215.71,224.48,215.32,224.48"/>
	<path class="st2" d="M172.06,235.61c0,1.04-0.84,1.89-1.89,1.89c-1.04,0-1.89-0.85-1.89-1.89c0-1.05,0.85-1.89,1.89-1.89
		C171.21,233.72,172.06,234.56,172.06,235.61"/>
	<path class="st2" d="M183.6,235.61c0,1.04-0.84,1.89-1.89,1.89c-1.04,0-1.89-0.85-1.89-1.89c0-1.05,0.85-1.89,1.89-1.89
		C182.76,233.72,183.6,234.56,183.6,235.61"/>
	<path class="st2" d="M195.14,235.61c0,1.04-0.85,1.89-1.89,1.89c-1.04,0-1.89-0.85-1.89-1.89c0-1.05,0.85-1.89,1.89-1.89
		C194.29,233.72,195.14,234.56,195.14,235.61"/>
	<path class="st4" d="M410.67,159.45c0-4.37-3.54-7.91-7.91-7.91H279.64c-4.37,0-7.91,3.54-7.91,7.91v81.5
		c0,4.37,3.54,7.91,7.91,7.91h123.11c4.37,0,7.91-3.54,7.91-7.91V159.45"/>
	<path class="st0" d="M348.51,220.98c0,1.54-1.24,2.78-2.78,2.78h-56.53c-1.54,0-2.78-1.24-2.78-2.78v-55.98
		c0-1.53,1.24-2.78,2.78-2.78h56.53c1.54,0,2.78,1.25,2.78,2.78V220.98"/>
	<path class="st2" d="M393.2,162.21h-27.7c-1.53,0-2.78,1.25-2.78,2.78v27.4c0,1.54,1.25,2.78,2.78,2.78h27.7
		c1.54,0,2.78-1.24,2.78-2.78v-27.4C395.98,163.46,394.74,162.21,393.2,162.21z M393.2,163.66c0.73,0,1.33,0.6,1.33,1.33v27.4
		c0,0.74-0.6,1.34-1.33,1.34h-27.7c-0.73,0-1.33-0.6-1.33-1.34v-27.4c0-0.73,0.6-1.33,1.33-1.33H393.2"/>
	<path class="st1" d="M392.51,204.86h-6.95c-0.4,0-0.72-0.32-0.72-0.72c0-0.4,0.32-0.72,0.72-0.72h6.95c0.4,0,0.72,0.32,0.72,0.72
		C393.22,204.54,392.9,204.86,392.51,204.86"/>
	<path class="st1" d="M381.76,204.86H366.2c-0.4,0-0.72-0.32-0.72-0.72c0-0.4,0.32-0.72,0.72-0.72h15.55c0.4,0,0.72,0.32,0.72,0.72
		C382.47,204.54,382.15,204.86,381.76,204.86"/>
	<path class="st1" d="M392.51,208.99h-16.72c-0.4,0-0.72-0.32-0.72-0.72c0-0.4,0.32-0.72,0.72-0.72h16.72c0.4,0,0.72,0.32,0.72,0.72
		C393.22,208.67,392.9,208.99,392.51,208.99"/>
	<path class="st1" d="M371.9,208.99h-5.7c-0.4,0-0.72-0.32-0.72-0.72c0-0.4,0.32-0.72,0.72-0.72h5.7c0.4,0,0.72,0.32,0.72,0.72
		C372.62,208.67,372.3,208.99,371.9,208.99"/>
	<path class="st1" d="M392.51,217.14h-6.95c-0.4,0-0.72-0.32-0.72-0.72c0-0.4,0.32-0.72,0.72-0.72h6.95c0.4,0,0.72,0.32,0.72,0.72
		C393.22,216.81,392.9,217.14,392.51,217.14"/>
	<path class="st1" d="M381.76,217.14H366.2c-0.4,0-0.72-0.32-0.72-0.72c0-0.4,0.32-0.72,0.72-0.72h15.55c0.4,0,0.72,0.32,0.72,0.72
		C382.47,216.81,382.15,217.14,381.76,217.14"/>
	<path class="st1" d="M392.51,221.28h-16.72c-0.4,0-0.72-0.33-0.72-0.72c0-0.4,0.32-0.72,0.72-0.72h16.72c0.4,0,0.72,0.32,0.72,0.72
		C393.22,220.95,392.9,221.28,392.51,221.28"/>
	<path class="st1" d="M371.9,221.28h-5.7c-0.4,0-0.72-0.33-0.72-0.72c0-0.4,0.32-0.72,0.72-0.72h5.7c0.4,0,0.72,0.32,0.72,0.72
		C372.62,220.95,372.3,221.28,371.9,221.28"/>
	<path class="st1" d="M392.51,213.14h-26.3c-0.4,0-0.72-0.32-0.72-0.72c0-0.4,0.32-0.72,0.72-0.72h26.3c0.4,0,0.72,0.32,0.72,0.72
		C393.22,212.81,392.9,213.14,392.51,213.14"/>
	<path class="st2" d="M331.55,235.61c0,1.04-0.85,1.89-1.89,1.89c-1.05,0-1.89-0.85-1.89-1.89c0-1.05,0.84-1.89,1.89-1.89
		C330.7,233.72,331.55,234.56,331.55,235.61"/>
	<path class="st2" d="M343.09,235.61c0,1.04-0.85,1.89-1.89,1.89c-1.05,0-1.89-0.85-1.89-1.89c0-1.05,0.84-1.89,1.89-1.89
		C342.24,233.72,343.09,234.56,343.09,235.61"/>
	<path class="st2" d="M354.62,235.61c0,1.04-0.84,1.89-1.89,1.89c-1.04,0-1.89-0.85-1.89-1.89c0-1.05,0.84-1.89,1.89-1.89
		C353.78,233.72,354.62,234.56,354.62,235.61"/>
	<path class="st4" d="M410.67,278.17c0-4.37-3.54-7.91-7.91-7.91H279.64c-4.37,0-7.91,3.54-7.91,7.91v81.49
		c0,4.37,3.54,7.91,7.91,7.91h123.11c4.37,0,7.91-3.54,7.91-7.91V278.17"/>
	<path class="st1" d="M362.22,319.51c0,1.84-1.5,3.34-3.34,3.34h-33.32c-1.85,0-3.34-1.5-3.34-3.34v-32.96
		c0-1.85,1.49-3.34,3.34-3.34h33.32c1.84,0,3.34,1.49,3.34,3.34V319.51"/>
	<path class="st1" d="M358.04,334.51h-8.35c-0.48,0-0.86-0.39-0.86-0.87c0-0.48,0.39-0.86,0.86-0.86h8.35
		c0.48,0,0.87,0.39,0.87,0.86C358.91,334.11,358.52,334.51,358.04,334.51"/>
	<path class="st1" d="M345.11,334.51h-18.7c-0.48,0-0.87-0.39-0.87-0.87c0-0.48,0.39-0.86,0.87-0.86h18.7
		c0.48,0,0.86,0.39,0.86,0.86C345.97,334.11,345.59,334.51,345.11,334.51"/>
	<path class="st0" d="M358.19,350.96c0,2.03-1.65,3.67-3.68,3.67h-22.3c-2.03,0-3.68-1.65-3.68-3.67c0-2.03,1.65-3.68,3.68-3.68
		h22.3C356.54,347.28,358.19,348.93,358.19,350.96"/>
	<path class="st4" d="M334.39,350.96c0,0.73-0.59,1.33-1.33,1.33s-1.33-0.59-1.33-1.33s0.59-1.33,1.33-1.33
		S334.39,350.22,334.39,350.96"/>
	<path class="st4" d="M339.33,350.96c0,0.73-0.59,1.33-1.33,1.33s-1.33-0.59-1.33-1.33s0.59-1.33,1.33-1.33
		S339.33,350.22,339.33,350.96"/>
	<path class="st4" d="M344.28,350.96c0,0.73-0.59,1.33-1.32,1.33c-0.73,0-1.33-0.59-1.33-1.33s0.59-1.33,1.33-1.33
		C343.68,349.63,344.28,350.22,344.28,350.96"/>
	<path class="st2" d="M349.22,350.96c0,0.73-0.59,1.33-1.33,1.33c-0.73,0-1.32-0.59-1.32-1.33s0.59-1.33,1.32-1.33
		C348.63,349.63,349.22,350.22,349.22,350.96"/>
	<path class="st4" d="M354.17,350.96c0,0.73-0.59,1.33-1.33,1.33s-1.33-0.59-1.33-1.33s0.59-1.33,1.33-1.33
		S354.17,350.22,354.17,350.96"/>
	<path class="st2" d="M397.14,291.6h-12.92c-0.4,0-0.72-0.32-0.72-0.72c0-0.4,0.32-0.72,0.72-0.72h12.92c0.4,0,0.72,0.32,0.72,0.72
		C397.85,291.28,397.53,291.6,397.14,291.6"/>
	<path class="st2" d="M380.41,291.6h-9.57c-0.4,0-0.72-0.32-0.72-0.72c0-0.4,0.32-0.72,0.72-0.72h9.57c0.4,0,0.72,0.32,0.72,0.72
		C381.13,291.28,380.81,291.6,380.41,291.6"/>
	<path class="st2" d="M397.14,295.74h-6.42c-0.4,0-0.72-0.33-0.72-0.72c0-0.4,0.32-0.72,0.72-0.72h6.42c0.4,0,0.72,0.32,0.72,0.72
		C397.85,295.41,397.53,295.74,397.14,295.74"/>
	<path class="st2" d="M386.83,295.74h-15.99c-0.4,0-0.72-0.33-0.72-0.72c0-0.4,0.32-0.72,0.72-0.72h15.99c0.4,0,0.72,0.32,0.72,0.72
		C387.55,295.41,387.23,295.74,386.83,295.74"/>
	<path class="st2" d="M397.14,299.87h-26.3c-0.4,0-0.72-0.32-0.72-0.72c0-0.4,0.32-0.72,0.72-0.72h26.3c0.4,0,0.72,0.32,0.72,0.72
		C397.85,299.55,397.53,299.87,397.14,299.87"/>
	<path class="st2" d="M314.63,291.6h-12.92c-0.4,0-0.72-0.32-0.72-0.72c0-0.4,0.32-0.72,0.72-0.72h12.92c0.4,0,0.72,0.32,0.72,0.72
		C315.35,291.28,315.03,291.6,314.63,291.6"/>
	<path class="st2" d="M297.91,291.6h-9.57c-0.4,0-0.72-0.32-0.72-0.72c0-0.4,0.32-0.72,0.72-0.72h9.57c0.4,0,0.72,0.32,0.72,0.72
		C298.63,291.28,298.31,291.6,297.91,291.6"/>
	<path class="st2" d="M314.63,295.74h-7.86c-0.4,0-0.72-0.33-0.72-0.72c0-0.4,0.32-0.72,0.72-0.72h7.86c0.4,0,0.72,0.32,0.72,0.72
		C315.35,295.41,315.03,295.74,314.63,295.74"/>
	<path class="st2" d="M302.89,295.74h-14.55c-0.4,0-0.72-0.33-0.72-0.72c0-0.4,0.32-0.72,0.72-0.72h14.55c0.4,0,0.72,0.32,0.72,0.72
		C303.61,295.41,303.29,295.74,302.89,295.74"/>
	<path class="st2" d="M181.76,152.26c-0.4,0-0.72-0.32-0.72-0.72v-32.3c0-0.4,0.32-0.72,0.72-0.72c0.4,0,0.72,0.32,0.72,0.72v32.3
		C182.47,151.94,182.15,152.26,181.76,152.26"/>
	<path class="st2" d="M183.34,119.24c0,0.88-0.71,1.59-1.58,1.59c-0.88,0-1.59-0.71-1.59-1.59c0-0.88,0.71-1.58,1.59-1.58
		C182.63,117.66,183.34,118.36,183.34,119.24"/>
	<path class="st2" d="M183.34,151.54c0,0.88-0.71,1.59-1.58,1.59c-0.88,0-1.59-0.71-1.59-1.59s0.71-1.58,1.59-1.58
		C182.63,149.95,183.34,150.66,183.34,151.54"/>
	<path class="st2" d="M271.73,200.92h-21.61c-0.4,0-0.72-0.32-0.72-0.72s0.32-0.72,0.72-0.72h21.61c0.4,0,0.72,0.32,0.72,0.72
		S272.12,200.92,271.73,200.92"/>
	<path class="st2" d="M250.11,198.61c0.88,0,1.59,0.71,1.59,1.59s-0.71,1.59-1.59,1.59s-1.59-0.71-1.59-1.59
		S249.24,198.61,250.11,198.61"/>
	<path class="st2" d="M271.73,198.61c0.88,0,1.59,0.71,1.59,1.59s-0.71,1.59-1.59,1.59s-1.59-0.71-1.59-1.59
		S270.85,198.61,271.73,198.61"/>
	<path class="st2" d="M341.5,270.85c-0.4,0-0.72-0.32-0.72-0.72v-21.62c0-0.4,0.32-0.72,0.72-0.72c0.4,0,0.72,0.32,0.72,0.72v21.62
		C342.22,270.53,341.9,270.85,341.5,270.85"/>
	<path class="st2" d="M339.91,270.14c0-0.88,0.71-1.59,1.59-1.59s1.59,0.71,1.59,1.59c0,0.88-0.71,1.58-1.59,1.58
		S339.91,271.01,339.91,270.14"/>
	<path class="st2" d="M339.91,248.52c0-0.88,0.71-1.58,1.59-1.58s1.59,0.71,1.59,1.58c0,0.88-0.71,1.59-1.59,1.59
		S339.91,249.4,339.91,248.52"/>
	<path class="st2" d="M76.79,388.89c-10.08,13.97-22.83,56.26-28.58,84.29c46.41,13.93,87.38,11.19,124.2,8.31
		c3.04-0.24,5.3-2.92,5.02-5.95c-3.28-35.22-9.19-67.43-9.19-67.43L76.79,388.89"/>
	<path class="st1" d="M180.88,287.88c0,0,22.52,15.16,33.05,12.31c14.82-4.02,21.34-41.76,21.97-45.11
		c0.64-3.35,3.49-20.34,6.45-26.68c2.78-5.96,4.48-12.06,5.37-15.81c0.54-2.26,2.08-3.35,3.6-3.12c1.34,0.21,2.23,1.26,1.47,4.63
		c-0.87,3.9-1.65,7.82-2.36,11.15c-0.22,1.05-0.65,2.04,0.09,1.3c1.72-1.74,3.97-3.44,5.72-2.81c3.31,1.2,6.83,12.34,3.28,21.17
		c-3.55,8.83-9.22,7.84-10.2,11.99c-0.98,4.16-6.1,56.88-10.2,66.53c-5.89,13.88-62.38,3.75-62.38,3.75L180.88,287.88"/>
	<path class="st2" d="M177.66,326.49c16.09,2.8,56.15,7.31,60.69-3.39c2.86-6.76,6.31-35.56,8.38-52.77
		c0.86-7.19,1.48-12.38,1.78-13.62c0.49-2.09,1.94-3.05,3.61-4.16c2.09-1.39,4.68-3.11,6.63-7.95c2.34-5.83,1.45-12.87-0.37-16.94
		c-0.74-1.68-1.65-2.85-2.41-3.12c-1.06-0.39-2.82,0.56-4.84,2.6c-0.21,0.21-0.76,0.76-1.4,0.39c-0.65-0.37-0.47-1.06-0.28-1.79
		c0.05-0.21,0.11-0.44,0.16-0.67c0.27-1.23,0.54-2.54,0.82-3.9c0.49-2.36,0.99-4.8,1.55-7.26c0.46-2.08,0.19-2.9-0.02-3.2
		c-0.1-0.15-0.29-0.33-0.77-0.41c-1.19-0.17-2.26,0.82-2.66,2.48c-0.96,4.05-2.69,10.1-5.42,15.96c-2.58,5.53-5.13,19.57-6.09,24.85
		c-0.13,0.7-0.23,1.26-0.3,1.63l-0.08,0.44c-2.31,12.42-9.11,41.7-22.5,45.33c-9.5,2.58-27.75-8.55-32.58-11.66L177.66,326.49z
		 M213.74,331.59c-16.89,0-35.8-3.33-37.15-3.57l-0.77-0.14l4.36-41.48l1.16,0.79c0.2,0.14,18.75,12.53,29.58,12.53
		c1,0,1.93-0.1,2.78-0.33c12.82-3.47,19.53-34.57,21.28-44.01l0.08-0.45c0.07-0.38,0.17-0.93,0.3-1.62
		c0.97-5.34,3.55-19.54,6.22-25.26c2.68-5.73,4.37-11.67,5.31-15.65c0.6-2.53,2.47-4.07,4.55-3.76c0.84,0.13,1.48,0.51,1.9,1.13
		c0.65,0.95,0.74,2.43,0.27,4.52c-0.55,2.45-1.05,4.88-1.54,7.23c-0.22,1.05-0.43,2.07-0.64,3.06c1.96-1.59,3.67-2.14,5.09-1.62
		c1.57,0.57,2.7,2.49,3.38,4.02c2.03,4.54,2.94,11.95,0.4,18.27c-2.15,5.33-5.1,7.29-7.27,8.73c-1.55,1.03-2.56,1.7-2.91,3.14
		c-0.27,1.15-0.92,6.58-1.74,13.44c-2.07,17.3-5.53,46.25-8.49,53.22C237.33,329.81,226.07,331.58,213.74,331.59"/>
	<path class="st1" d="M47.74,305.81L31.67,343.3c-0.23,0.55-0.51,1.08-0.77,1.61c-5.14,10.34,0.32,22.96,11.56,26.18l48.49,13.89
		l1.28-20.57l-25.97-8.12c-5.02-1.57-7.28-7.41-4.61-11.95l4.5-7.68L47.74,305.81"/>
	<path class="st2" d="M47.87,307.66l-15.42,35.97c-0.22,0.53-0.48,1.03-0.72,1.52l-0.07,0.14c-2.35,4.73-2.47,10.22-0.33,15.08
		c2.14,4.84,6.28,8.46,11.38,9.92l47.47,13.6l1.18-18.86l-25.34-7.93c-2.64-0.83-4.73-2.78-5.72-5.36c-1-2.58-0.77-5.43,0.63-7.82
		l4.25-7.25L47.87,307.66z M91.73,386.09l-49.49-14.18c-5.58-1.59-10.11-5.56-12.45-10.86c-2.34-5.31-2.21-11.33,0.36-16.51
		l0.07-0.14c0.24-0.49,0.48-0.95,0.68-1.43l16.73-39.02l19.5,32.7l-4.75,8.11c-1.14,1.94-1.33,4.26-0.52,6.35s2.51,3.69,4.66,4.36
		l26.6,8.32L91.73,386.09"/>
	<path class="st4" d="M86.08,267.36c27.15-12.11,79.62-9.6,116.44,29.91c4.33,4.65-8.18,39.69-19.32,37.28
		c-8.27-1.79-15.24-3.81-17.73-1.05c-0.68,0.76-0.83,1.65-0.91,2.16c-3.11,19.82,2.96,44.65,2.96,44.65
		c3.64,14.85,7.56,30.91,1.96,43.11c-15.14,32.96-92.53,22.62-110.63,12.67c-7.45-4.09,0.38-15.37,5.85-52.15
		c4.08-27.4,6.46-50.1,1.41-41.34c-2.48,4.3-28.42-21.55-25.71-29.27C46.33,296.41,56.78,280.44,86.08,267.36"/>
	<path class="st2" d="M67.88,339.85c0.14,0,0.29,0.03,0.44,0.07c1.26,0.44,3.61,1.26-2.78,44.14c-2.09,14.04-4.54,24.41-6.32,31.99
		c-2.84,12.07-4.02,17.06,0.04,19.29c13.54,7.44,58.55,14.58,87.06,5.17c11.25-3.71,18.78-9.58,22.39-17.45
		c5.48-11.93,1.67-27.5-2.01-42.55c-0.06-0.25-6.08-25.22-2.97-44.98c0.08-0.53,0.26-1.64,1.12-2.59c2.51-2.79,8.28-1.5,15.58,0.14
		c0.96,0.21,1.94,0.43,2.95,0.65c3.44,0.74,7.72-2.9,11.76-9.98c5.92-10.42,8.88-23.63,6.77-25.9
		c-20.89-22.42-44.91-30.9-61.38-34.06c-19.42-3.72-39.64-2.1-54.09,4.35c-30.59,13.65-40.03,30.65-45.23,45.48
		c-1.99,5.67,15.26,24.85,22.61,28.22c1.07,0.49,1.53,0.42,1.58,0.34C66.02,341.07,66.86,339.85,67.88,339.85z M113.34,446.68
		c-22.88,0-45.82-4.86-54.9-9.85c-5.18-2.84-3.82-8.58-0.86-21.16c1.78-7.55,4.21-17.89,6.29-31.85
		c4.99-33.54,4.53-40.71,3.92-42.14c-0.18,0.18-0.49,0.56-0.95,1.34c-0.43,0.74-1.43,1.41-3.74,0.34
		c-6.78-3.11-26.11-22.83-23.49-30.31c5.32-15.17,14.97-32.55,46.14-46.46c14.76-6.58,35.35-8.25,55.1-4.46
		c16.72,3.21,41.09,11.81,62.3,34.57c3.11,3.34-1,18.12-6.54,27.88c-4.48,7.89-9.31,11.72-13.58,10.8c-1.01-0.22-2-0.44-2.96-0.66
		c-6.5-1.46-12.11-2.71-13.96-0.66c-0.53,0.58-0.64,1.3-0.71,1.72c-3.05,19.44,2.89,44.07,2.95,44.32
		c3.57,14.62,7.63,31.19,1.91,43.66c-3.81,8.3-11.69,14.48-23.4,18.34C136.98,445.38,125.17,446.68,113.34,446.68"/>
	<path class="st2" d="M112.89,236.14c0,0-19.37-8.7-21.65-24.56c-1.6-11.14,5.05-21.57,15.58-25.55c5.33-2.02,13.68-2.88,19.17-0.69
		c11.69,4.66,13.76,13.72,13.76,13.72S130.01,246.61,112.89,236.14"/>
	<path class="st2" d="M118.8,184.55c1.46-2.25,5.47-13.62-4.94-18.27c-10.41-4.65-25.24-4.27-32.54,4.21
		c-7.29,8.48-14.24,22.9-5.71,31.97c10.68,11.34,34.07-7.31,34.07-7.31L118.8,184.55"/>
	<path class="st1" d="M139.1,199.89c0,0,1.28,3.29,1.86,4.73c0.56,1.36,1.8,5.95,6.24,10.34c0.43,0.42,0.46,1.11,0.1,1.58
		l-2.75,3.68c-0.19,0.26-0.27,0.58-0.21,0.89c0.35,1.94,1.64,9.08,1.66,10.45c0.03,1.59-0.93,3.19-1.46,3.64
		c-1.42,1.19-8.46,1.61-8.46,1.61s-1.81,0.53-3.53,11.19c-1.21,7.51,9.74,18.03,9.74,18.03s-23.73,7.9-44.89,0.17
		c-1.31-0.48-1.47-2.34-0.4-3.24c4.23-3.56,13.69-15.27,16.96-26.05c0.2-0.65,0.64-1.18,1.24-1.48c2.45-1.2,8.8-0.4,6.99-12.02
		c-0.05-0.3-0.17-0.59-0.35-0.82c-1.55-1.97-8.69-11.7,2.77-10.84c7.57,0.57,9.58-5.11,10.1-7.7c0.17-0.84,0.67-1.59,1.38-2.08
		L139.1,199.89"/>
	<path class="st2" d="M123.28,212.55c-1.68,0-3.39,0.29-3.97,1.38c-0.95,1.8,1.12,5.52,3.2,8.14c0.28,0.35,0.46,0.77,0.53,1.21
		c1.6,10.35-3.18,11.66-6.05,12.44c-0.54,0.15-1.06,0.29-1.41,0.46c-0.38,0.19-0.67,0.54-0.8,0.96
		c-3.39,11.21-13.05,22.95-17.22,26.46c-0.31,0.26-0.46,0.7-0.39,1.11c0.04,0.2,0.15,0.55,0.54,0.69
		c17.83,6.52,37.76,1.71,43.01,0.22c-2.75-2.88-10.05-11.23-8.99-17.76c1.63-10.1,3.43-11.67,4.12-11.87
		c0.06-0.02,0.12-0.03,0.19-0.03c2.81-0.17,7.14-0.73,7.97-1.42c0.36-0.3,1.18-1.67,1.16-2.97c-0.02-1.03-0.86-6.01-1.65-10.32
		c-0.1-0.54,0.04-1.1,0.36-1.55l2.75-3.68c0.11-0.15,0.1-0.35-0.02-0.47c-3.99-3.96-5.47-8.02-6.18-9.97
		c-0.09-0.27-0.17-0.48-0.24-0.65c-0.38-0.93-1.05-2.65-1.48-3.74l-2.12,1.47c-0.54,0.38-0.91,0.93-1.04,1.56
		c-0.55,2.72-2.72,8.99-10.99,8.37C124.14,212.57,123.71,212.55,123.28,212.55z M118.1,270.41c-6.66,0-13.97-0.86-20.98-3.43
		c-0.85-0.31-1.45-1.05-1.62-1.98c-0.18-1.01,0.19-2.04,0.96-2.69c4.3-3.61,13.56-15.29,16.69-25.65c0.27-0.88,0.88-1.6,1.68-1.99
		c0.49-0.24,1.08-0.4,1.71-0.57c2.76-0.76,6.2-1.69,4.82-10.55c-0.03-0.16-0.09-0.31-0.19-0.43c-1.55-1.97-5-6.9-3.36-9.98
		c0.93-1.74,3.24-2.49,6.86-2.22c6.69,0.51,8.64-4.18,9.21-7.02c0.21-1.05,0.83-1.98,1.73-2.61l2.99-2.08
		c0.21-0.15,0.48-0.19,0.73-0.11c0.24,0.07,0.45,0.26,0.54,0.5c0.01,0.03,1.28,3.3,1.86,4.71c0.08,0.19,0.17,0.42,0.27,0.71
		c0.67,1.84,2.05,5.66,5.78,9.35c0.72,0.71,0.8,1.87,0.19,2.69l-2.76,3.68c-0.05,0.07-0.07,0.15-0.05,0.23
		c0.49,2.72,1.65,9.2,1.67,10.59c0.03,1.82-1.01,3.66-1.77,4.3c-1.46,1.22-7.05,1.68-8.7,1.79c-0.35,0.38-1.68,2.32-3,10.5
		c-1.13,6.99,9.39,17.19,9.5,17.29c0.21,0.2,0.3,0.51,0.23,0.79c-0.06,0.29-0.28,0.52-0.55,0.61
		C142.4,266.89,131.59,270.41,118.1,270.41"/>
	<path class="st2" d="M123.96,223.69c-1.17,0-2.77-0.47-4.18-2.5c-0.27-0.39-0.17-0.91,0.21-1.17c0.39-0.27,0.91-0.17,1.18,0.21
		c0.85,1.23,1.84,1.84,2.93,1.77c1.15-0.06,2.05-0.82,2.22-1.08c0.12-0.42,0.54-0.67,0.97-0.58c0.46,0.09,0.76,0.54,0.66,0.99
		c-0.17,0.81-1.53,1.95-3.09,2.27C124.6,223.65,124.3,223.69,123.96,223.69"/>
	<path class="st2" d="M146.32,214.44c-0.4,0-0.75-0.28-0.83-0.68c-0.09-0.45,0.21-0.9,0.67-0.99c1.39-0.27,2.32-0.92,2.87-1.98
		c1.32-2.55,0.05-7.02-0.82-9.23l-23.48,8.44c-0.44,0.16-0.92-0.07-1.08-0.51c-0.16-0.44,0.07-0.93,0.51-1.08l24.24-8.71
		c0.41-0.15,0.87,0.04,1.05,0.44c0.14,0.3,3.23,7.24,1.08,11.42c-0.79,1.53-2.15,2.49-4.05,2.87
		C146.43,214.43,146.38,214.44,146.32,214.44"/>
	<path class="st1" d="M253.12,399.24c8.03-1.03,15.38,4.65,16.4,12.68c1.03,8.03-4.65,15.38-12.68,16.41
		c-8.03,1.03-15.38-4.65-16.41-12.68C239.42,407.62,245.09,400.28,253.12,399.24z M225.4,414.71l0.72,5.65l6.19,0.59
		c0.4,1.28,0.9,2.51,1.5,3.67l-3.99,4.76l3.45,4.53l5.66-2.59c0.97,0.9,2.03,1.7,3.14,2.43l-1.08,6.12l5.26,2.2l3.6-5.06
		c1.28,0.28,2.59,0.46,3.93,0.52l2.13,5.85l5.65-0.72l0.59-6.19c1.28-0.4,2.51-0.91,3.67-1.5l4.76,3.99l4.53-3.45l-2.59-5.66
		c0.89-0.97,1.7-2.03,2.42-3.14l6.12,1.08l2.2-5.26l-5.07-3.6c0.29-1.28,0.46-2.6,0.53-3.94l5.84-2.13l-0.72-5.65l-6.19-0.59
		c-0.41-1.28-0.91-2.51-1.5-3.67l3.99-4.76l-3.45-4.54l-5.66,2.59c-0.97-0.9-2.03-1.71-3.14-2.43l1.08-6.12l-5.26-2.2l-3.6,5.06
		c-1.28-0.29-2.59-0.46-3.93-0.53l-2.13-5.84l-5.65,0.72l-0.58,6.19c-1.28,0.4-2.51,0.9-3.68,1.5l-4.76-3.99l-4.53,3.45l2.59,5.66
		c-0.9,0.98-1.7,2.03-2.42,3.14l-6.13-1.08l-2.2,5.26l5.06,3.6c-0.28,1.28-0.46,2.6-0.53,3.94L225.4,414.71"/>
	<path class="st4" d="M255.02,399.97c-0.59,0-1.19,0.03-1.79,0.11c-3.66,0.47-6.92,2.34-9.18,5.26c-2.26,2.92-3.24,6.54-2.77,10.2
		c0.47,3.66,2.34,6.92,5.26,9.18c2.92,2.26,6.55,3.24,10.2,2.77c7.56-0.96,12.92-7.9,11.95-15.46c-0.47-3.66-2.34-6.92-5.26-9.18
		C260.99,400.97,258.05,399.97,255.02,399.97z M254.95,429.3c-3.41,0-6.7-1.12-9.45-3.24c-3.28-2.53-5.37-6.19-5.9-10.3
		c-0.53-4.11,0.57-8.17,3.11-11.45c2.53-3.28,6.19-5.37,10.3-5.9c4.11-0.53,8.18,0.58,11.45,3.11c3.28,2.53,5.38,6.19,5.9,10.3
		c1.08,8.48-4.93,16.26-13.41,17.35C256.29,429.26,255.62,429.3,254.95,429.3z M249.84,436.17c0.06,0,0.12,0.01,0.18,0.02
		c1.22,0.28,2.5,0.44,3.79,0.51c0.34,0.02,0.64,0.23,0.75,0.55l1.9,5.21l4.31-0.56l0.53-5.52c0.03-0.34,0.26-0.62,0.58-0.73
		c1.23-0.39,2.43-0.88,3.54-1.44c0.3-0.16,0.67-0.11,0.93,0.1l4.24,3.56l3.45-2.63l-2.31-5.05c-0.14-0.31-0.08-0.67,0.15-0.92
		c0.86-0.94,1.65-1.96,2.34-3.03c0.19-0.29,0.52-0.43,0.85-0.37l5.46,0.96l1.68-4.01l-4.52-3.21c-0.28-0.19-0.41-0.54-0.33-0.87
		c0.27-1.22,0.44-2.5,0.51-3.79c0.02-0.34,0.23-0.64,0.56-0.75l5.21-1.9l-0.55-4.31l-5.52-0.52c-0.34-0.04-0.62-0.27-0.72-0.59
		c-0.39-1.23-0.88-2.42-1.45-3.54c-0.15-0.31-0.11-0.67,0.1-0.93l3.56-4.24l-2.63-3.46l-5.04,2.31c-0.31,0.14-0.67,0.08-0.92-0.14
		c-0.94-0.86-1.96-1.65-3.03-2.34c-0.29-0.18-0.43-0.52-0.37-0.85l0.96-5.46l-4.01-1.68l-3.21,4.52c-0.2,0.28-0.54,0.41-0.87,0.33
		c-1.23-0.27-2.51-0.44-3.8-0.51c-0.34-0.02-0.64-0.23-0.75-0.55l-1.9-5.21l-4.31,0.55l-0.52,5.52c-0.03,0.34-0.27,0.62-0.59,0.72
		c-1.23,0.39-2.43,0.88-3.54,1.45c-0.3,0.16-0.67,0.11-0.93-0.1l-4.24-3.56l-3.46,2.64l2.31,5.04c0.14,0.31,0.08,0.67-0.15,0.92
		c-0.86,0.94-1.65,1.95-2.34,3.03c-0.18,0.28-0.52,0.43-0.85,0.37l-5.46-0.96l-1.67,4.01l4.51,3.21c0.28,0.2,0.41,0.54,0.33,0.88
		c-0.27,1.22-0.44,2.5-0.51,3.79c-0.02,0.34-0.23,0.64-0.55,0.75l-5.21,1.9l0.55,4.31l5.52,0.52c0.34,0.04,0.62,0.27,0.73,0.59
		c0.39,1.23,0.88,2.43,1.44,3.54c0.16,0.3,0.11,0.67-0.1,0.93l-3.56,4.24l2.64,3.46l5.04-2.31c0.31-0.14,0.67-0.08,0.92,0.15
		c0.94,0.86,1.95,1.65,3.02,2.34c0.29,0.19,0.43,0.52,0.38,0.86l-0.96,5.46l4.01,1.67l3.21-4.51
		C249.32,436.29,249.57,436.17,249.84,436.17z M255.91,444.22c-0.35,0-0.67-0.22-0.79-0.56l-1.94-5.32c-1-0.07-1.99-0.2-2.96-0.4
		l-3.28,4.61c-0.23,0.32-0.65,0.44-1.02,0.29l-5.26-2.2c-0.36-0.15-0.57-0.53-0.51-0.92l0.98-5.58c-0.82-0.56-1.61-1.17-2.36-1.82
		l-5.15,2.36c-0.36,0.16-0.79,0.06-1.03-0.26l-3.45-4.53c-0.24-0.32-0.22-0.76,0.03-1.06l3.64-4.34c-0.42-0.89-0.8-1.81-1.12-2.77
		l-5.65-0.54c-0.39-0.03-0.7-0.34-0.76-0.73l-0.72-5.65c-0.05-0.39,0.17-0.77,0.55-0.9l5.32-1.94c0.07-1,0.2-1.99,0.39-2.96
		l-4.61-3.28c-0.32-0.23-0.44-0.65-0.29-1.02l2.2-5.26c0.16-0.36,0.54-0.57,0.93-0.51l5.58,0.98c0.56-0.82,1.17-1.61,1.82-2.36
		l-2.36-5.16c-0.16-0.36-0.06-0.78,0.26-1.02l4.53-3.45c0.31-0.24,0.76-0.23,1.05,0.03l4.34,3.64c0.89-0.43,1.82-0.81,2.77-1.13
		l0.54-5.64c0.04-0.4,0.34-0.71,0.73-0.76l5.65-0.72c0.4-0.05,0.77,0.18,0.9,0.55l1.94,5.32c1.01,0.07,1.99,0.2,2.96,0.39l3.28-4.61
		c0.22-0.32,0.65-0.44,1.01-0.29l5.26,2.2c0.36,0.15,0.57,0.54,0.51,0.93l-0.98,5.58c0.82,0.56,1.61,1.17,2.36,1.82l5.16-2.36
		c0.36-0.16,0.79-0.06,1.02,0.26l3.45,4.53c0.24,0.32,0.23,0.76-0.02,1.05l-3.64,4.34c0.43,0.89,0.8,1.81,1.13,2.77l5.64,0.53
		c0.4,0.04,0.71,0.34,0.76,0.73l0.72,5.65c0.05,0.39-0.18,0.77-0.55,0.9l-5.32,1.94c-0.08,1.01-0.21,1.99-0.4,2.96l4.61,3.28
		c0.32,0.23,0.44,0.65,0.29,1.02l-2.2,5.26c-0.15,0.36-0.54,0.57-0.93,0.51l-5.58-0.98c-0.56,0.82-1.17,1.61-1.82,2.35l2.36,5.16
		c0.17,0.35,0.06,0.78-0.26,1.02l-4.53,3.45c-0.31,0.24-0.75,0.23-1.05-0.03l-4.34-3.64c-0.89,0.43-1.81,0.81-2.77,1.13l-0.53,5.65
		c-0.04,0.39-0.34,0.7-0.73,0.76l-5.65,0.72C255.97,444.22,255.94,444.22,255.91,444.22"/>
	<path class="st1" d="M293.21,358.83c6.96-0.89,13.33,4.03,14.23,11c0.89,6.97-4.03,13.34-11,14.23c-6.97,0.9-13.34-4.03-14.23-11
		C281.31,366.09,286.24,359.72,293.21,358.83z M269.16,372.24l0.62,4.9l5.38,0.51c0.34,1.11,0.78,2.17,1.3,3.19l-3.46,4.13
		l2.99,3.93l4.91-2.24c0.85,0.78,1.76,1.48,2.72,2.1l-0.94,5.32l4.56,1.91l3.12-4.4c1.11,0.24,2.26,0.4,3.41,0.46l1.85,5.07
		l4.9-0.62l0.51-5.38c1.11-0.35,2.18-0.78,3.19-1.3l4.13,3.47l3.93-3l-2.24-4.91c0.78-0.84,1.48-1.76,2.1-2.72l5.32,0.94l1.9-4.56
		l-4.39-3.12c0.24-1.11,0.4-2.25,0.46-3.41l5.07-1.85l-0.63-4.9l-5.37-0.51c-0.35-1.11-0.78-2.17-1.3-3.19l3.46-4.12l-2.99-3.93
		l-4.91,2.24c-0.84-0.78-1.76-1.48-2.72-2.1l0.94-5.31l-4.56-1.91l-3.12,4.39c-1.11-0.24-2.25-0.4-3.41-0.45l-1.85-5.07l-4.9,0.62
		l-0.51,5.38c-1.11,0.35-2.17,0.78-3.19,1.3l-4.12-3.46l-3.93,2.99l2.24,4.91c-0.78,0.85-1.47,1.76-2.1,2.72l-5.32-0.93l-1.91,4.56
		l4.4,3.12c-0.25,1.11-0.4,2.26-0.46,3.42L269.16,372.24"/>
	<path class="st4" d="M294.85,359.57c-0.51,0-1.02,0.03-1.54,0.1c-3.15,0.4-5.94,2.01-7.89,4.52c-1.94,2.51-2.79,5.62-2.38,8.77
		c0.83,6.49,6.79,11.1,13.29,10.27c6.49-0.83,11.1-6.79,10.27-13.29c-0.4-3.15-2.01-5.95-4.52-7.89
		C299.98,360.43,297.46,359.57,294.85,359.57z M294.81,385.01c-6.72,0-12.57-5.01-13.44-11.84c-0.46-3.59,0.51-7.15,2.72-10.02
		c2.22-2.87,5.42-4.7,9.01-5.16c3.59-0.46,7.15,0.51,10.02,2.72c2.86,2.21,4.7,5.41,5.16,9.01c0.95,7.42-4.31,14.23-11.72,15.18
		C295.96,384.97,295.39,385.01,294.81,385.01z M290.36,390.74c0.06,0,0.12,0.01,0.18,0.02c1.06,0.23,2.16,0.38,3.27,0.44
		c0.34,0.02,0.64,0.23,0.76,0.55l1.61,4.44l3.56-0.45l0.45-4.7c0.03-0.34,0.27-0.62,0.59-0.73c1.06-0.33,2.09-0.75,3.05-1.24
		c0.3-0.16,0.67-0.11,0.93,0.1l3.61,3.03l2.85-2.18l-1.96-4.29c-0.14-0.31-0.08-0.67,0.15-0.92c0.74-0.81,1.42-1.69,2.02-2.61
		c0.18-0.29,0.52-0.43,0.85-0.38l4.65,0.82l1.39-3.32l-3.84-2.73c-0.28-0.2-0.41-0.54-0.33-0.87c0.23-1.06,0.38-2.16,0.44-3.28
		c0.02-0.34,0.23-0.63,0.55-0.74l4.44-1.62l-0.46-3.56l-4.7-0.44c-0.34-0.03-0.62-0.27-0.72-0.59c-0.34-1.06-0.76-2.09-1.25-3.06
		c-0.16-0.3-0.11-0.67,0.1-0.93l3.03-3.61l-2.18-2.86L309.1,357c-0.31,0.14-0.67,0.08-0.92-0.15c-0.81-0.73-1.69-1.42-2.61-2.01
		c-0.29-0.19-0.43-0.53-0.37-0.85l0.82-4.66l-3.31-1.39l-2.73,3.84c-0.2,0.28-0.54,0.41-0.88,0.34c-1.06-0.24-2.16-0.39-3.27-0.44
		c-0.34-0.02-0.64-0.23-0.75-0.56l-1.61-4.44l-3.56,0.46l-0.44,4.7c-0.04,0.34-0.27,0.62-0.59,0.73c-1.07,0.33-2.09,0.76-3.06,1.24
		c-0.3,0.16-0.67,0.11-0.93-0.1l-3.61-3.03l-2.86,2.18l1.97,4.3c0.14,0.31,0.08,0.67-0.15,0.92c-0.74,0.81-1.42,1.69-2.02,2.61
		c-0.19,0.29-0.52,0.43-0.86,0.37l-4.65-0.82l-1.39,3.31l3.84,2.73c0.28,0.2,0.41,0.54,0.34,0.88c-0.23,1.05-0.38,2.16-0.44,3.27
		c-0.02,0.34-0.23,0.64-0.56,0.75l-4.43,1.61l0.46,3.56l4.7,0.44c0.33,0.04,0.62,0.27,0.72,0.59c0.34,1.07,0.76,2.09,1.24,3.06
		c0.16,0.3,0.11,0.67-0.1,0.93l-3.03,3.61l2.17,2.85l4.3-1.96c0.31-0.14,0.67-0.09,0.92,0.14c0.81,0.74,1.69,1.42,2.61,2.02
		c0.28,0.18,0.43,0.52,0.37,0.85l-0.82,4.65l3.31,1.39l2.73-3.84C289.83,390.87,290.09,390.74,290.36,390.74z M295.62,397.96
		c-0.35,0-0.67-0.22-0.79-0.56l-1.66-4.55c-0.82-0.06-1.64-0.17-2.44-0.33l-2.8,3.95c-0.23,0.32-0.65,0.44-1.02,0.29l-4.56-1.91
		c-0.36-0.15-0.57-0.54-0.51-0.93l0.84-4.77c-0.67-0.46-1.32-0.96-1.94-1.5l-4.41,2.02c-0.35,0.16-0.78,0.06-1.02-0.26l-2.99-3.93
		c-0.24-0.31-0.23-0.75,0.02-1.06l3.11-3.7c-0.35-0.73-0.66-1.49-0.93-2.28l-4.82-0.45c-0.39-0.04-0.71-0.34-0.76-0.73l-0.63-4.9
		c-0.05-0.39,0.18-0.77,0.55-0.9l4.55-1.66c0.06-0.83,0.17-1.65,0.32-2.44l-3.94-2.8c-0.32-0.23-0.44-0.65-0.29-1.02l1.91-4.56
		c0.15-0.36,0.53-0.57,0.92-0.51l4.77,0.84c0.46-0.68,0.97-1.33,1.51-1.95l-2.02-4.41c-0.17-0.36-0.06-0.78,0.26-1.02l3.93-2.99
		c0.31-0.24,0.75-0.23,1.06,0.03l3.71,3.11c0.73-0.35,1.49-0.66,2.28-0.93l0.45-4.82c0.04-0.39,0.34-0.7,0.73-0.76l4.9-0.63
		c0.39-0.05,0.77,0.18,0.9,0.55l1.66,4.55c0.82,0.07,1.64,0.17,2.44,0.33l2.81-3.94c0.23-0.32,0.65-0.44,1.02-0.29l4.55,1.91
		c0.36,0.15,0.57,0.54,0.51,0.93l-0.84,4.77c0.68,0.46,1.33,0.97,1.94,1.5l4.41-2.01c0.36-0.17,0.78-0.06,1.03,0.26l2.99,3.93
		c0.24,0.32,0.23,0.76-0.02,1.06l-3.11,3.71c0.35,0.73,0.66,1.49,0.93,2.28l4.82,0.46c0.4,0.04,0.71,0.34,0.76,0.73l0.63,4.91
		c0.05,0.39-0.18,0.77-0.55,0.9l-4.55,1.65c-0.06,0.83-0.17,1.65-0.33,2.44l3.95,2.8c0.32,0.23,0.44,0.65,0.29,1.02l-1.91,4.56
		c-0.15,0.36-0.54,0.57-0.93,0.51l-4.77-0.84c-0.46,0.67-0.96,1.32-1.5,1.94l2.02,4.41c0.17,0.36,0.06,0.79-0.26,1.02l-3.93,2.99
		c-0.31,0.24-0.75,0.23-1.05-0.02l-3.71-3.11c-0.73,0.35-1.49,0.66-2.28,0.93l-0.46,4.82c-0.04,0.4-0.34,0.71-0.73,0.76l-4.9,0.62
		C295.69,397.95,295.65,397.96,295.62,397.96"/>
	<path class="st1" d="M323.21,414.07c11.22-2.74,22.54,4.12,25.28,15.34c2.75,11.22-4.12,22.54-15.34,25.28
		c-11.22,2.74-22.54-4.12-25.28-15.34S311.99,416.81,323.21,414.07z M286.4,440.42l1.93,7.89l8.88-0.16
		c0.77,1.74,1.68,3.41,2.71,4.96l-4.9,7.39l5.62,5.87l7.6-4.58c1.53,1.11,3.15,2.09,4.83,2.93l-0.55,8.86l7.8,2.28l4.29-7.76
		c1.86,0.2,3.75,0.23,5.66,0.11l3.95,7.95l7.89-1.93l-0.16-8.88c1.75-0.77,3.41-1.68,4.97-2.71l7.39,4.9l5.87-5.62l-4.58-7.6
		c1.11-1.53,2.09-3.14,2.93-4.83l8.86,0.55l2.28-7.8l-7.76-4.29c0.2-1.86,0.23-3.75,0.11-5.66l7.94-3.95l-1.93-7.89l-8.88,0.16
		c-0.77-1.74-1.68-3.41-2.71-4.97l4.89-7.39l-5.61-5.87l-7.61,4.58c-1.53-1.11-3.14-2.09-4.83-2.94l0.55-8.85l-7.8-2.28l-4.29,7.76
		c-1.86-0.2-3.75-0.23-5.66-0.11l-3.95-7.94l-7.89,1.93l0.16,8.87c-1.75,0.78-3.41,1.68-4.97,2.72l-7.39-4.9l-5.87,5.62l4.58,7.6
		c-1.11,1.53-2.09,3.15-2.93,4.83l-8.86-0.55l-2.28,7.8l7.76,4.29c-0.2,1.86-0.23,3.75-0.11,5.66L286.4,440.42"/>
	<path class="st4" d="M323.21,414.07l0.2,0.82c-10.75,2.63-17.35,13.52-14.72,24.27c1.27,5.2,4.49,9.6,9.08,12.39
		c4.58,2.78,9.97,3.61,15.18,2.34c10.75-2.63,17.35-13.51,14.72-24.26c-1.27-5.21-4.49-9.61-9.08-12.39
		c-4.58-2.78-9.97-3.61-15.18-2.34L323.21,414.07z M328.14,456.15c-3.93,0-7.8-1.07-11.24-3.17c-4.97-3.02-8.46-7.79-9.84-13.43
		c-2.85-11.65,4.31-23.45,15.96-26.3c5.65-1.38,11.49-0.48,16.45,2.54c4.97,3.02,8.46,7.79,9.84,13.43
		c2.85,11.66-4.31,23.46-15.96,26.31C331.62,455.94,329.87,456.15,328.14,456.15z M330.27,467.38c0.32,0,0.61,0.18,0.76,0.47
		l3.65,7.34l6.58-1.61l-0.15-8.2c-0.01-0.34,0.19-0.65,0.51-0.79c1.7-0.76,3.33-1.65,4.84-2.65c0.29-0.19,0.65-0.19,0.94,0
		l6.82,4.53l4.89-4.68l-4.23-7.03c-0.17-0.29-0.16-0.66,0.04-0.93c1.08-1.48,2.04-3.07,2.86-4.71c0.15-0.3,0.47-0.48,0.81-0.47
		l8.18,0.51l1.9-6.51l-7.17-3.96c-0.29-0.16-0.46-0.49-0.43-0.83c0.19-1.8,0.23-3.66,0.11-5.52c-0.02-0.34,0.17-0.66,0.47-0.81
		l7.34-3.65l-1.61-6.58l-8.2,0.15c-0.33,0.02-0.65-0.19-0.79-0.5c-0.76-1.71-1.64-3.34-2.65-4.84c-0.19-0.28-0.19-0.65,0-0.93
		l4.53-6.82l-4.68-4.9l-7.03,4.23c-0.29,0.17-0.66,0.16-0.93-0.04c-1.48-1.08-3.07-2.04-4.71-2.86c-0.3-0.16-0.48-0.47-0.46-0.81
		l0.51-8.18l-6.5-1.9l-3.96,7.16c-0.17,0.3-0.49,0.47-0.83,0.43c-1.8-0.19-3.66-0.23-5.52-0.11c-0.34,0.01-0.66-0.16-0.81-0.47
		l-3.65-7.34l-6.58,1.61l0.15,8.2c0.01,0.34-0.19,0.65-0.51,0.79c-1.7,0.76-3.33,1.65-4.84,2.65c-0.29,0.19-0.65,0.19-0.93,0
		l-6.83-4.53l-4.89,4.68l4.22,7.03c0.18,0.29,0.16,0.66-0.04,0.93c-1.08,1.48-2.04,3.07-2.86,4.71c-0.15,0.31-0.47,0.48-0.81,0.46
		l-8.18-0.51l-1.9,6.51l7.17,3.96c0.29,0.17,0.46,0.49,0.43,0.83c-0.19,1.8-0.23,3.65-0.11,5.52c0.02,0.34-0.17,0.66-0.47,0.81
		l-7.34,3.65l1.61,6.58l8.2-0.15c0.34,0.02,0.65,0.19,0.79,0.5c0.76,1.7,1.65,3.33,2.64,4.84c0.19,0.28,0.19,0.65,0,0.93l-4.52,6.82
		l4.68,4.9l7.03-4.23c0.29-0.17,0.66-0.16,0.93,0.04c1.49,1.08,3.07,2.04,4.71,2.86c0.3,0.15,0.48,0.47,0.46,0.81l-0.51,8.19
		l6.5,1.9l3.96-7.16c0.17-0.3,0.49-0.47,0.83-0.43c1.8,0.19,3.66,0.23,5.52,0.11C330.23,467.38,330.24,467.38,330.27,467.38z
		 M334.21,477.02c-0.31,0-0.61-0.18-0.76-0.47l-3.7-7.45c-1.58,0.07-3.15,0.04-4.68-0.09l-4.02,7.27c-0.19,0.35-0.59,0.52-0.98,0.41
		l-7.8-2.28c-0.38-0.11-0.63-0.47-0.6-0.86l0.52-8.31c-1.38-0.71-2.72-1.53-3.99-2.42l-7.13,4.29c-0.34,0.21-0.77,0.15-1.05-0.14
		l-5.61-5.86c-0.27-0.29-0.31-0.72-0.09-1.05l4.59-6.93c-0.83-1.3-1.58-2.67-2.24-4.1l-8.32,0.15c-0.37-0.01-0.74-0.27-0.83-0.65
		l-1.93-7.89c-0.09-0.39,0.09-0.78,0.45-0.96l7.44-3.7c-0.07-1.58-0.04-3.15,0.09-4.68l-7.27-4.02c-0.34-0.19-0.51-0.6-0.4-0.98
		l2.28-7.8c0.11-0.38,0.47-0.64,0.86-0.61l8.3,0.52c0.72-1.38,1.53-2.72,2.43-3.99l-4.29-7.13c-0.21-0.34-0.15-0.77,0.14-1.04
		l5.87-5.62c0.28-0.27,0.72-0.31,1.05-0.09l6.92,4.59c1.3-0.83,2.68-1.58,4.11-2.25l-0.15-8.31c-0.01-0.39,0.26-0.74,0.64-0.83
		l7.89-1.93c0.39-0.09,0.78,0.09,0.96,0.44l3.7,7.45c1.57-0.07,3.15-0.04,4.68,0.09l4.02-7.27c0.19-0.35,0.6-0.51,0.97-0.4l7.8,2.27
		c0.38,0.11,0.64,0.47,0.61,0.86l-0.52,8.3c1.38,0.72,2.72,1.53,3.99,2.43l7.13-4.29c0.34-0.2,0.77-0.15,1.05,0.14l5.61,5.87
		c0.28,0.29,0.31,0.72,0.09,1.05l-4.59,6.92c0.83,1.3,1.58,2.68,2.24,4.11l8.32-0.15c0.01,0,0.01,0,0.02,0
		c0.39,0,0.72,0.27,0.82,0.65l1.93,7.89c0.09,0.39-0.09,0.78-0.45,0.96l-7.44,3.7c0.07,1.58,0.04,3.15-0.09,4.68l7.27,4.03
		c0.34,0.19,0.51,0.59,0.4,0.97l-2.27,7.8c-0.11,0.38-0.47,0.64-0.86,0.6l-8.3-0.51c-0.72,1.38-1.53,2.72-2.43,3.99l4.29,7.13
		c0.2,0.33,0.15,0.77-0.14,1.05l-5.87,5.61c-0.28,0.27-0.72,0.31-1.05,0.09l-6.92-4.59c-1.3,0.83-2.68,1.58-4.11,2.24l0.15,8.32
		c0.01,0.4-0.26,0.74-0.64,0.83l-7.89,1.93C334.35,477.01,334.28,477.02,334.21,477.02"/>
	<path class="st1" d="M393.88,85.61c0,21.38-17.32,38.7-38.69,38.7c-21.38,0-38.7-17.32-38.7-38.7s17.32-38.7,38.7-38.7
		C376.56,46.91,393.88,64.24,393.88,85.61"/>
	<path class="st2" d="M355.19,47.76c-20.88,0-37.85,16.98-37.85,37.86c0,20.87,16.98,37.85,37.85,37.85
		c20.86,0,37.84-16.98,37.84-37.85C393.04,64.74,376.06,47.76,355.19,47.76z M355.19,125.16c-21.8,0-39.54-17.74-39.54-39.54
		c0-21.81,17.74-39.55,39.54-39.55c21.8,0,39.54,17.74,39.54,39.55C394.73,107.42,376.99,125.16,355.19,125.16"/>
	<path class="st4" d="M330.48,85.55l13.18,5v5.43l-18.7-8.33v-4.31l18.7-8.31v5.43L330.48,85.55"/>
	<path class="st4" d="M351.12,102.44h-4.27l12.8-35.32h4.27L351.12,102.44"/>
	<path class="st4" d="M381.57,85.44l-13.8-5.07v-5.34l19.3,8.31v4.31l-19.3,8.31v-5.34L381.57,85.44"/>
	<g transform="matrix(1, 0, 0, 1, 111, 25)">
		<g>
			<defs>
				<rect id="SVGID_1_" x="37" y="8.33" width="68" height="42.67"/>
			</defs>
			<clipPath id="SVGID_00000068664875064758227080000013533237066908413328_">
				<use xlink:href="#SVGID_1_"  style="overflow:visible;"/>
			</clipPath>
			<g style="clip-path:url(#SVGID_00000068664875064758227080000013533237066908413328_);">
				<g>
					<g transform="translate(0.298078, 24.779197)">
						<g>
							<path class="st2" d="M49.04,16.91c-1.89,0-3.58-0.43-5.06-1.29c-1.47-0.88-2.62-2.15-3.46-3.81c-0.83-1.67-1.25-3.67-1.25-6
								s0.42-4.33,1.25-6c0.83-1.68,1.98-2.95,3.46-3.81c1.48-0.86,3.17-1.29,5.06-1.29c2.01,0,3.69,0.39,5.02,1.15
								c1.34,0.75,2.32,1.9,2.92,3.44l-1.62,1.08h-0.38c-0.6-1.23-1.37-2.11-2.31-2.62c-0.95-0.51-2.16-0.77-3.62-0.77
								c-1.36,0-2.57,0.31-3.62,0.92c-1.06,0.6-1.9,1.56-2.52,2.88c-0.61,1.31-0.92,2.99-0.92,5.04c0,2.04,0.3,3.72,0.92,5.04
								c0.62,1.31,1.46,2.27,2.52,2.88c1.05,0.6,2.26,0.9,3.62,0.9c1.57,0,2.84-0.34,3.83-1.04c1-0.71,1.74-1.85,2.23-3.44h0.35
								l1.71,0.85c-0.52,1.91-1.47,3.37-2.85,4.4C52.93,16.4,51.17,16.91,49.04,16.91z"/>
						</g>
					</g>
				</g>
				<g>
					<g transform="translate(16.179545, 24.779197)">
						<g>
							<path class="st2" d="M48,16.59h-2.33v-21.6h3.75l6.56,18.29h0.29l6.56-18.29h3.62v21.6h-2.42V-1.03l-0.35-0.06l-6.4,17.69
								h-2.52l-6.4-17.69L48-1.03V16.59z"/>
						</g>
					</g>
				</g>
				<g>
					<g transform="translate(36.679266, 24.779197)">
						<g>
							<path class="st2" d="M58.66,16.91c-1.36,0-2.58-0.18-3.67-0.54c-1.07-0.38-1.97-0.86-2.69-1.46c-0.72-0.61-1.26-1.28-1.6-2
								l1.4-1.67h0.35c1.34,2.25,3.42,3.38,6.21,3.38c1.62,0,2.83-0.34,3.62-1.02c0.79-0.68,1.19-1.62,1.19-2.83
								c0-0.71-0.14-1.3-0.4-1.79c-0.25-0.5-0.68-0.92-1.29-1.27c-0.6-0.34-1.41-0.65-2.44-0.92l-2.54-0.62
								C54.93,5.71,53.55,5,52.66,4.01c-0.89-1-1.33-2.26-1.33-3.77c0-1.07,0.27-2.02,0.81-2.85c0.55-0.84,1.36-1.51,2.42-1.98
								c1.07-0.47,2.34-0.71,3.83-0.71c1.62,0,2.99,0.23,4.1,0.69c1.11,0.46,2.01,1.14,2.69,2.04l-1.25,1.69h-0.38
								c-0.61-0.76-1.34-1.32-2.19-1.67c-0.85-0.36-1.84-0.54-2.98-0.54c-1.5,0-2.64,0.29-3.4,0.88c-0.77,0.58-1.15,1.39-1.15,2.4
								c0,0.99,0.28,1.77,0.83,2.33c0.57,0.57,1.51,1.02,2.83,1.33l2.6,0.63c2.09,0.49,3.61,1.24,4.54,2.27
								c0.94,1.02,1.42,2.31,1.42,3.9c0,1.22-0.28,2.31-0.83,3.25c-0.54,0.95-1.37,1.69-2.48,2.23
								C61.65,16.64,60.29,16.91,58.66,16.91z"/>
						</g>
					</g>
				</g>
			</g>
		</g>
	</g>
</g>
</svg>
