<?xml version="1.0" encoding="utf-8"?>
<!-- Generator: Adobe Illustrator 29.8.2, SVG Export Plug-In . SVG Version: 9.03 Build 0)  -->
<svg version="1.0" id="Layer_1" xmlns="http://www.w3.org/2000/svg" xmlns:xlink="http://www.w3.org/1999/xlink" x="0px" y="0px"
	 viewBox="0 0 250 250" style="enable-background:new 0 0 250 250;" xml:space="preserve">
<style type="text/css">
	.st0{fill:url(#SVGID_1_);}
	.st1{fill:url(#SVGID_00000011733137755070663800000014177649490929071520_);}
	.st2{fill:url(#SVGID_00000046333349274868087240000003618998254162172049_);}
	.st3{fill:url(#SVGID_00000133516462264986910780000014106604074688853692_);}
	.st4{clip-path:url(#SVGID_00000103260555617185220760000018439216152653351311_);}
	.st5{fill:url(#SVGID_00000131352308181725651490000013551661586569684671_);}
	.st6{fill:url(#SVGID_00000098214973427896368730000006203001646819792314_);}
	.st7{fill:url(#SVGID_00000141415107701884533830000014131541852028279960_);}
	.st8{fill:url(#SVGID_00000148634451504670576080000015094653556282782132_);}
	.st9{fill:url(#SVGID_00000092448691393573077630000007007545605989124496_);}
</style>
<g>
	<g>
		<g>
			<linearGradient id="SVGID_1_" gradientUnits="userSpaceOnUse" x1="55.4807" y1="161.8676" x2="194.5193" y2="161.8676">
				<stop  offset="0" style="stop-color:#05A0D5"/>
				<stop  offset="1" style="stop-color:#4C62AD"/>
			</linearGradient>
			<path class="st0" d="M125,219.87c-38.33,0-69.52-31.19-69.52-69.52c0-16.22,5.71-31.99,16.06-44.44
				c1.23-1.48,3.43-1.68,4.91-0.45c1.48,1.23,1.68,3.43,0.45,4.91c-9.32,11.19-14.44,25.4-14.44,39.98
				c0,34.49,28.05,62.54,62.54,62.54s62.54-28.05,62.54-62.54c0-14.94-5.35-29.4-15.07-40.72c-1.26-1.46-1.09-3.67,0.37-4.92
				c1.46-1.26,3.66-1.09,4.92,0.37c10.81,12.59,16.76,28.66,16.76,45.27C194.52,188.68,163.33,219.87,125,219.87z"/>
		</g>
	</g>
	<g>
		<g>
			
				<linearGradient id="SVGID_00000086662448286694304730000009180862633334611105_" gradientUnits="userSpaceOnUse" x1="84.6959" y1="162.5464" x2="165.3091" y2="162.5464">
				<stop  offset="0" style="stop-color:#05A0D5"/>
				<stop  offset="1" style="stop-color:#4C62AD"/>
			</linearGradient>
			<path style="fill:url(#SVGID_00000086662448286694304730000009180862633334611105_);" d="M125,219.87
				c-5.75,0-11.28-1.99-16.44-5.9c-4.77-3.62-9.02-8.74-12.64-15.23c-7.24-12.98-11.23-30.17-11.23-48.39
				c0-15.84,2.95-30.74,8.55-43.08c0.8-1.75,2.86-2.54,4.62-1.74c1.75,0.8,2.53,2.86,1.74,4.62c-5.11,11.27-7.93,25.54-7.93,40.19
				c0,17.05,3.68,33.03,10.34,44.99c6.32,11.32,14.47,17.55,22.98,17.55c8.52,0,16.68-6.23,22.99-17.55
				c6.66-11.96,10.34-27.94,10.34-44.99c0-14.33-2.71-28.36-7.62-39.5c-0.78-1.76,0.02-3.82,1.79-4.6c1.76-0.78,3.82,0.02,4.6,1.79
				c5.37,12.19,8.21,26.82,8.21,42.32c0,18.22-3.99,35.41-11.23,48.39c-3.62,6.49-7.87,11.61-12.64,15.23
				C136.28,217.88,130.75,219.87,125,219.87z"/>
		</g>
	</g>
	
		<linearGradient id="SVGID_00000009582759978053967140000014443659794763825294_" gradientUnits="userSpaceOnUse" x1="68.3825" y1="118.6084" x2="181.6275" y2="118.6084">
		<stop  offset="0" style="stop-color:#05A0D5"/>
		<stop  offset="1" style="stop-color:#4C62AD"/>
	</linearGradient>
	<path style="fill:url(#SVGID_00000009582759978053967140000014443659794763825294_);" d="M125,129.58
		c-21.91,0-42.04-5.71-55.23-15.66c-1.54-1.16-1.84-3.35-0.68-4.89c1.16-1.54,3.35-1.85,4.89-0.68
		c11.83,8.92,30.91,14.25,51.03,14.25c20.13,0,39.2-5.33,51.03-14.25c1.54-1.17,3.73-0.86,4.89,0.68c1.16,1.54,0.86,3.73-0.68,4.89
		C167.05,123.87,146.92,129.58,125,129.58L125,129.58z"/>
	
		<linearGradient id="SVGID_00000019637915676890410440000006181252572666373018_" gradientUnits="userSpaceOnUse" x1="68.3744" y1="182.0838" x2="181.6147" y2="182.0838">
		<stop  offset="0" style="stop-color:#05A0D5"/>
		<stop  offset="1" style="stop-color:#4C62AD"/>
	</linearGradient>
	<path style="fill:url(#SVGID_00000019637915676890410440000006181252572666373018_);" d="M178.12,193.05
		c-0.73,0-1.47-0.23-2.1-0.71c-11.83-8.92-30.9-14.25-51.03-14.25s-39.2,5.33-51.03,14.25c-1.54,1.16-3.73,0.86-4.89-0.68
		c-1.16-1.54-0.85-3.73,0.69-4.89c13.19-9.95,33.32-15.65,55.23-15.65c21.91,0,42.04,5.7,55.23,15.65c1.54,1.17,1.85,3.35,0.68,4.89
		C180.22,192.57,179.18,193.05,178.12,193.05z"/>
	<g>
		<defs>
			<rect id="SVGID_00000094609346346028248060000007366305086619991230_" x="120.27" y="105.37" width="8.92" height="114.7"/>
		</defs>
		
			<linearGradient id="SVGID_00000109733269813524681690000003737887276908723647_" gradientUnits="userSpaceOnUse" x1="120.2661" y1="162.7149" x2="129.191" y2="162.7149">
			<stop  offset="0" style="stop-color:#05A0D5"/>
			<stop  offset="1" style="stop-color:#4C62AD"/>
		</linearGradient>
		
			<use xlink:href="#SVGID_00000094609346346028248060000007366305086619991230_"  style="overflow:visible;fill:url(#SVGID_00000109733269813524681690000003737887276908723647_);"/>
		<clipPath id="SVGID_00000095310985370581745430000007570226940943134600_">
			<use xlink:href="#SVGID_00000094609346346028248060000007366305086619991230_"  style="overflow:visible;"/>
		</clipPath>
		<g style="clip-path:url(#SVGID_00000095310985370581745430000007570226940943134600_);">
			
				<linearGradient id="SVGID_00000165226680878317998000000008119425823015202716_" gradientUnits="userSpaceOnUse" x1="121.5112" y1="163.1607" x2="128.4888" y2="163.1607">
				<stop  offset="0" style="stop-color:#05A0D5"/>
				<stop  offset="1" style="stop-color:#4C62AD"/>
			</linearGradient>
			<path style="fill:url(#SVGID_00000165226680878317998000000008119425823015202716_);" d="M125,219.87
				c-1.93,0-3.49-1.56-3.49-3.49V109.94c0-1.93,1.56-3.49,3.49-3.49c1.92,0,3.49,1.56,3.49,3.49v106.44
				C128.49,218.3,126.92,219.87,125,219.87L125,219.87z"/>
		</g>
	</g>
	
		<linearGradient id="SVGID_00000096773129232759943500000014277774148201202859_" gradientUnits="userSpaceOnUse" x1="55.4807" y1="150.346" x2="194.5193" y2="150.346">
		<stop  offset="0" style="stop-color:#05A0D5"/>
		<stop  offset="1" style="stop-color:#4C62AD"/>
	</linearGradient>
	<path style="fill:url(#SVGID_00000096773129232759943500000014277774148201202859_);" d="M191.03,153.83H58.97
		c-1.92,0-3.49-1.56-3.49-3.49c0-1.93,1.56-3.49,3.49-3.49h132.07c1.92,0,3.49,1.56,3.49,3.49
		C194.52,152.27,192.96,153.83,191.03,153.83z"/>
	
		<linearGradient id="SVGID_00000106851024573628289290000014010354262262902162_" gradientUnits="userSpaceOnUse" x1="78.1665" y1="81.4866" x2="171.8335" y2="81.4866">
		<stop  offset="0" style="stop-color:#05A0D5"/>
		<stop  offset="1" style="stop-color:#4C62AD"/>
	</linearGradient>
	<path style="fill:url(#SVGID_00000106851024573628289290000014010354262262902162_);" d="M168.35,101.35H81.65
		c-1.92,0-3.49-1.56-3.49-3.49V65.11c0-1.92,1.56-3.49,3.49-3.49c1.93,0,3.49,1.56,3.49,3.49v29.26h79.71V65.38
		c0-1.92,1.56-3.49,3.49-3.49c1.92,0,3.49,1.56,3.49,3.49v32.48C171.83,99.78,170.27,101.35,168.35,101.35z"/>
	<g>
		<g>
			
				<linearGradient id="SVGID_00000031199172591336447910000003042142052879647144_" gradientUnits="userSpaceOnUse" x1="39.8123" y1="54.9901" x2="210.1877" y2="54.9901">
				<stop  offset="0" style="stop-color:#05A0D5"/>
				<stop  offset="1" style="stop-color:#4C62AD"/>
			</linearGradient>
			<path style="fill:url(#SVGID_00000031199172591336447910000003042142052879647144_);" d="M125,80.04c-0.3,0-0.6-0.04-0.89-0.11
				l-81.7-21.57c-1.53-0.41-2.6-1.79-2.6-3.38c0-1.58,1.07-2.97,2.6-3.37l81.69-21.57c0.58-0.15,1.2-0.15,1.78,0l81.7,21.57
				c1.53,0.4,2.6,1.79,2.6,3.37c0,1.58-1.07,2.97-2.6,3.38l-81.7,21.57C125.6,80,125.3,80.04,125,80.04z M56.97,54.99L125,72.95
				l68.03-17.96L125,37.03L56.97,54.99z"/>
		</g>
	</g>
	
		<linearGradient id="SVGID_00000166660020242977115610000006521492345899983259_" gradientUnits="userSpaceOnUse" x1="63.9424" y1="70.6666" x2="127.2371" y2="70.6666">
		<stop  offset="0" style="stop-color:#05A0D5"/>
		<stop  offset="1" style="stop-color:#4C62AD"/>
	</linearGradient>
	<path style="fill:url(#SVGID_00000166660020242977115610000006521492345899983259_);" d="M67.43,89.84c-1.93,0-3.49-1.56-3.49-3.49
		V69.34c0-1.59,1.08-2.98,2.63-3.38l56.31-14.35c1.87-0.48,3.77,0.65,4.24,2.52c0.47,1.86-0.65,3.77-2.52,4.24L70.92,72.06v14.29
		C70.92,88.27,69.36,89.84,67.43,89.84z"/>
</g>
</svg>
